<svg width="165" height="38" viewBox="0 0 165 38" fill="none" xmlns="http://www.w3.org/2000/svg">
<path fill-rule="evenodd" clip-rule="evenodd" d="M157.255 22.5266C160.806 22.5266 163.548 19.6588 163.583 16.2542C163.334 14.768 162.809 12.0186 158.927 12.0186C154.672 12.0186 153.264 17.9118 149.803 21.7155C149.525 23.8756 147.462 25.8089 144.889 26.1339C145.518 26.7876 146.922 27.1428 148.598 27.1428C151.662 27.1428 155.371 26.2271 157.315 24.3227C154.722 24.3579 153.056 22.7043 152.892 20.417C154.157 21.9372 155.585 22.5266 157.255 22.5266Z" fill="#12ABDB"/>
<path fill-rule="evenodd" clip-rule="evenodd" d="M129.993 13.1498C129.993 11.2756 129.879 10.0262 128.643 10.0262C128.079 10.0262 127.806 10.1395 127.314 10.3008C127.751 16.6285 126.308 22.2032 124.548 22.2032C122.242 22.2032 123.392 8.6382 118.508 8.6382C114.001 8.6382 113.351 19.4675 112.841 19.4675C112.493 19.4675 112.439 16.6235 112.458 14.4533C112.648 13.4155 112.752 12.4809 112.752 11.7719C112.752 10.7643 112.335 9.0223 110.029 9.89268C110.109 17.6374 108.546 22.3152 106.786 22.3152C104.207 22.3152 104.178 15.2947 104.178 13.3614C104.178 11.4721 104.316 8.94804 101.486 9.84351C101.064 16.5983 99.2782 21.6955 98.1535 21.6955C96.4766 21.6955 96.8143 10.0262 93.1888 10.0262C89.9265 10.0262 88.9199 21.0809 88.2407 21.0809C87.0259 21.0809 88.6228 8.6382 83.912 8.6382C81.4431 8.6382 80.4605 12.7908 79.4932 17.4397C79.3054 18.3402 79.1124 18.3704 79.0769 17.352C79.0525 16.4867 79.0474 15.6151 79.0576 14.7499C80.242 10.0758 78.7949 8.34902 76.6127 9.59342C77.3173 18.2186 73.3249 22.4341 70.2657 22.4341C69.1601 22.4341 68.2867 21.9669 67.638 21.2288C71.3066 18.9956 72.9378 16.4326 72.9378 13.9273C72.9378 11.2169 71.3663 9.65256 68.7576 9.65256C65.1183 9.65256 63.0808 13.372 63.0808 16.5359C63.0808 18.2374 63.4032 19.6846 63.9288 20.8748C62.6785 21.4656 61.4991 21.9769 60.4024 22.4732C60.3028 19.2211 59.9365 15.8079 59.6547 12.654C57.7151 12.1225 57.1501 13.047 57.0017 14.7586C56.6538 18.6656 55.1966 21.0915 53.9068 21.0915C52.9396 21.0915 52.3455 19.9201 52.2756 18.6757C51.9139 12.4122 57.0359 10.6702 59.7182 11.5809C60.2742 10.198 59.6634 9.20418 57.2441 9.20418C54.3131 9.20418 52.1221 10.9713 50.515 13.2384C49.4448 14.7499 48.2047 15.8217 46.5582 17.1164C46.6029 16.7474 46.6232 16.3733 46.6232 16.0043C46.6232 11.591 44.2125 9.65256 41.9124 9.65256C40.0082 9.65256 38.8087 10.7836 38.1143 12.5256C37.9455 10.7786 37.5938 10.0267 36.572 10.0267C36.1353 10.0267 35.526 10.1488 34.8761 10.4637C35.1731 11.4386 35.2874 13.5987 35.2874 15.0156C35.2874 20.3232 33.7551 22.7049 32.2826 22.7049C30.5969 22.7049 30.3291 16.4074 30.1856 13.9576C29.9228 13.8588 29.6448 13.8052 29.3618 13.8052C27.8346 13.8052 27.6366 15.8368 27.2596 17.7059C26.8433 19.7778 25.6436 22.38 23.8627 22.38C22.7875 22.38 22.1121 21.3522 22.0283 19.502C21.8545 15.7486 25.0038 11.3 29.9279 12.683C30.5715 11.188 29.5598 10.0506 27.5173 10.0506C23.9172 10.0506 20.9417 12.722 19.6432 15.8859C18.3242 18.7891 16.0178 23.05 11.3272 23.05C8.0154 23.05 5.47658 20.1809 5.47658 14.1641C5.47658 8.97877 8.77319 4.05277 12.2894 4.05277C14.7483 4.05277 15.3196 6.45471 15.1012 8.70793C16.3757 9.72058 18.4626 8.77544 18.4626 6.24311C18.4626 4.49612 17.0345 1.53375 12.4189 1.53375C6.70659 1.53375 1.6582 7.18775 1.6582 14.6113C1.6582 21.8043 5.33695 26.0552 10.5441 26.0552C13.8318 26.0552 16.9304 24.1962 19.0681 20.7615C19.6089 23.768 21.6717 25.0325 23.2178 25.0325C25.7223 25.0325 27.3586 23.4229 28.251 21.2489C28.807 23.4279 29.9812 25.0426 31.9361 25.0426C33.3096 25.0426 34.3848 24.3486 35.1934 23.2415C34.871 30.8174 34.4699 35.6489 38.9813 34.7005C38.2832 32.5455 38.0598 28.6233 38.0598 25.1005C38.0598 15.4627 39.6618 12.29 41.67 12.29C43.1272 12.29 43.5981 14.1289 43.5981 16.0925C43.5981 17.1455 43.494 18.3558 43.2262 19.4428C40.7572 20.9882 38.7884 22.2087 38.7884 23.7579C38.7884 24.9833 39.7061 25.0955 40.4996 25.0955C42.3935 25.0955 44.6746 23.2516 45.9338 19.7728C47.0345 19.109 48.1401 18.3508 49.1962 17.318C49.1617 17.6719 49.1414 18.0258 49.1414 18.3899C49.1414 21.8434 50.6634 23.9354 53.0981 23.9354C55.0073 23.9354 56.4354 22.5916 57.4471 20.5801C57.5121 21.7402 57.5512 22.8082 57.5664 23.7868C53.6986 25.564 49.4193 27.3638 49.4193 32.373C49.4193 34.965 51.3031 36.9134 53.7582 36.9134C59.1481 36.9134 60.3782 31.2708 60.4276 24.7126C62.1833 23.9594 63.4869 23.3787 64.995 22.6356C66.2835 24.2402 68.039 25.0426 69.6461 25.0426C72.6851 25.0426 74.9713 23.443 76.8055 20.201C77.128 22.6658 77.7728 25.0426 79.0969 25.0426C81.5062 25.0426 81.9974 12.5356 83.7873 12.5356C85.1608 12.5356 84.0361 26.0653 87.6603 26.0653C90.764 26.0653 91.3441 14.1591 92.8573 14.1591C93.9286 14.1591 94.0073 25.0426 97.3891 25.0426C99.0507 25.0426 100.856 23.0588 101.757 18.9063C102.184 21.6721 103.588 25.0426 106.335 25.0426C107.937 25.0426 109.315 23.4329 110.38 21.298C110.673 23.4971 111.298 25.0426 112.513 25.0426C115.671 25.0426 115.567 12.5646 118.066 12.5646C120.015 12.5646 119.416 25.0426 124.057 25.0426C126.263 25.0426 127.309 23.1772 127.935 20.8308C128.787 24.2793 130.17 25.0426 131.301 25.0426C132.02 25.0426 132.566 24.7907 133.28 23.9493C129.689 22.4052 129.993 16.7809 129.993 13.1498ZM53.9867 34.5821C52.8709 34.5821 52.2806 33.5292 52.2806 32.3427C52.2806 29.1397 54.6506 27.4432 57.5664 25.9822C57.4369 32.9775 55.7956 34.5821 53.9867 34.5821ZM68.4858 11.9008C69.5712 11.9008 70.1907 12.8895 70.0815 14.3116C69.9584 15.9791 68.7334 17.8936 66.6008 19.3936C65.49 16.2549 66.319 11.9008 68.4858 11.9008ZM102.878 7.1676C103.91 7.13334 104.634 6.25319 104.639 5.20528C104.649 4.15736 103.929 3.32981 102.893 3.36891C101.857 3.40417 101.014 4.28452 101.009 5.33244C100.999 6.38035 101.842 7.20155 102.878 7.1676ZM128.604 7.69911C129.546 7.66485 130.315 6.82874 130.315 5.82999C130.315 4.83115 129.561 4.04904 128.619 4.07796C127.676 4.11222 126.908 4.95337 126.903 5.95212C126.893 6.95096 127.662 7.73307 128.604 7.69911ZM163.577 16.0043C163.497 12.0482 161.603 8.71297 158.677 6.05036C156.456 4.03897 153.818 2.50861 151.052 1.35741C150.834 1.26471 150.605 1.17484 150.382 1.08667C146.976 5.13595 135.184 8.15626 135.184 16.6442C135.184 19.9592 137.297 23.0639 140.395 24.3096C142.195 24.9834 143.99 25.0174 145.79 24.4166C147.392 23.8951 148.706 22.9115 149.802 21.7162C153.263 17.9124 154.671 12.0243 158.921 12.0243C162.808 12.0243 163.333 14.7687 163.582 16.2549C163.582 16.2449 163.582 16.1466 163.572 16.0043" fill="#0070AD"/>
</svg>
