<svg width="75" height="70" viewBox="0 0 75 70" fill="none" xmlns="http://www.w3.org/2000/svg">
<path d="M0.414163 68.4919C0.799513 67.9522 1.33025 67.7969 1.97798 67.8065C3.73951 67.8326 5.5017 67.8155 7.36754 67.8155C7.36754 67.5164 7.36754 67.2603 7.36754 67.0042C7.36754 62.7763 7.36646 58.5484 7.36807 54.3205C7.36875 52.5936 8.11797 51.8307 9.8216 51.8279C12.3094 51.8239 14.7972 51.8224 17.2851 51.8287C18.8908 51.8326 19.68 52.6271 19.6815 54.2402C19.6854 58.4681 19.6828 62.696 19.6828 66.9239V67.7619H23.3458V66.9186C23.3458 60.3715 23.3453 53.8243 23.3462 47.2771C23.3464 45.3249 24.0599 44.6116 26.0121 44.6104C28.4033 44.6089 30.7945 44.6055 33.1857 44.6116C34.9088 44.6159 35.6561 45.3647 35.6568 47.0859C35.6594 53.6814 35.6579 60.2769 35.658 66.8724C35.658 67.1559 35.658 67.4394 35.658 67.7687H39.3666V66.8429C39.3666 57.0584 39.3666 47.2739 39.3668 37.4893C39.3668 37.2478 39.3622 37.0059 39.3708 36.7646C39.4154 35.5169 40.1766 34.7033 41.4086 34.692C44.1377 34.667 46.8674 34.6688 49.5965 34.6908C50.7772 34.7003 51.5298 35.4299 51.6572 36.6037C51.6883 36.8906 51.6781 37.1826 51.6782 37.4723C51.6791 47.2327 51.6789 56.993 51.6789 66.7534V67.7521H55.3463V66.8748C55.3463 55.1092 55.3462 43.3436 55.3465 31.578C55.3466 29.633 56.0558 28.93 58.0169 28.9296C60.4322 28.929 62.8476 28.925 65.2629 28.931C66.8774 28.9351 67.6594 29.7205 67.6605 31.3358C67.6636 36.0469 67.6616 40.758 67.6616 45.469C67.6616 45.5898 67.6657 45.7109 67.659 45.8314C67.6208 46.5121 67.2001 46.9685 66.6003 46.9833C65.9758 46.9988 65.5007 46.5256 65.4946 45.8067C65.4783 43.874 65.488 41.9412 65.4878 40.0085C65.4876 37.3268 65.4878 34.6451 65.4878 31.9634C65.4878 31.7037 65.4878 31.4439 65.4878 31.1444H57.5736V67.7604H65.4878V66.9544C65.4878 61.7843 65.4877 56.6142 65.4882 51.4441C65.4882 51.2268 65.4697 51.0055 65.5034 50.793C65.5993 50.1862 65.9757 49.8215 66.5815 49.8253C67.1851 49.8292 67.5642 50.1906 67.6476 50.8031C67.6799 51.0406 67.6612 51.2855 67.6612 51.527C67.6617 56.6729 67.6616 61.8189 67.6616 66.9648V67.8154C69.4978 67.8154 71.2549 67.8118 73.012 67.8191C73.2991 67.8203 73.6738 67.7669 73.8535 67.92C74.1681 68.1883 74.5094 68.5729 74.5723 68.953C74.6576 69.4687 74.276 69.8518 73.7313 69.9525C73.473 70.0001 73.2021 69.9884 72.937 69.9884C49.3148 69.9897 25.6925 69.9876 2.07031 70.0001C1.40744 70.0004 0.847136 69.885 0.414062 69.3616L0.414163 68.4919ZM41.5835 36.8923V67.7756H49.4579V36.8923H41.5835ZM25.5562 67.7643H33.4255V46.8376H25.5562V67.7643ZM9.60278 54.0396V67.766H17.472V54.0396H9.60278Z" fill="white"/>
<path d="M7.61224 12.2616C7.37906 12.0163 7.11903 11.7655 6.88491 11.4924C5.96264 10.4169 5.95771 8.9659 6.93562 7.94222C8.15315 6.66763 9.40112 5.42057 10.6709 4.19793C11.781 3.12901 13.3153 3.15807 14.4165 4.29979C14.8812 4.78156 15.2328 4.87701 15.8176 4.53415C16.3521 4.22075 16.9581 4.01371 17.553 3.82389C17.9874 3.68525 18.1734 3.48268 18.1408 3.00718C18.0805 2.1262 18.2734 1.25713 19.013 0.738915C19.5352 0.373098 20.2213 0.0919894 20.8501 0.0567837C22.5112 -0.0362143 24.1812 0.00791865 25.8472 0.0300019C27.5132 0.0520852 28.5641 1.09245 28.5523 2.76383C28.5479 3.39548 28.7031 3.71129 29.3443 3.88266C29.9893 4.05506 30.6063 4.36228 31.2037 4.67171C31.5725 4.86271 31.7811 4.80351 32.07 4.5218C33.5839 3.04534 34.9483 3.07276 36.4479 4.57358C37.5064 5.63284 38.5709 6.68609 39.621 7.75357C40.8285 8.98104 40.8444 10.5096 39.5993 11.7164C39.1508 12.1512 39.1256 12.4786 39.4019 13.0013C39.7269 13.6158 39.9133 14.3026 40.2206 14.9282C40.3198 15.1302 40.6028 15.3559 40.8156 15.3706C43.1599 15.5323 43.9315 16.3331 43.9358 18.6747C43.9363 18.9351 43.9359 19.1955 43.9359 19.6362C49.1707 17.1817 54.2821 14.7851 59.4457 12.364C59.3602 12.1318 59.3019 11.932 59.2155 11.7453C58.739 10.7167 58.2088 9.70955 57.7999 8.65513C57.6559 8.28377 57.6476 7.68131 57.8612 7.40007C58.0728 7.12141 58.6671 6.95364 59.0508 7.01311C63.6751 7.72947 68.2925 8.49034 72.909 9.25594C74.0805 9.45022 74.4129 10.1666 73.8205 11.1798C71.4699 15.2002 69.122 19.2222 66.7313 23.2185C66.5195 23.5725 66.0335 23.8837 65.6239 23.9685C65.0451 24.0883 64.7579 23.5765 64.5343 23.0949C63.9976 21.9386 63.451 20.7869 62.8798 19.5725C62.5367 19.7188 62.2315 19.8379 61.9355 19.9767C53.9674 23.7138 46.0002 27.453 38.0327 31.1913C37.8581 31.2732 37.6842 31.3587 37.5038 31.426C36.8678 31.6634 36.3023 31.4451 36.0547 30.8742C35.8183 30.329 36.0011 29.773 36.5944 29.4797C37.8695 28.8495 39.1626 28.2554 40.4506 27.6514C47.8076 24.2013 55.1651 20.7521 62.5232 17.304C63.6254 16.7875 64.0543 16.945 64.5757 18.049C64.9362 18.8122 65.2917 19.5778 65.6528 20.3408C65.6707 20.3786 65.7207 20.4012 65.8334 20.4965C67.6393 17.4202 69.4357 14.3601 71.2923 11.1975C67.6838 10.6043 64.1769 10.0278 60.5385 9.42965C60.9749 10.3677 61.3506 11.1726 61.7239 11.9787C62.2402 13.0936 62.0947 13.5208 60.9967 14.0363C51.0439 18.7086 41.0899 23.3787 31.1358 28.0485C22.2513 32.2164 13.366 36.383 4.48159 40.5513C4.2871 40.6426 4.09862 40.7466 3.83581 40.8813C4.34305 41.9628 4.83902 43.0203 5.3566 44.1239C7.59285 43.0757 9.77167 42.0561 11.9491 41.0335C18.4748 37.9688 25 34.9029 31.5256 31.8379C31.6565 31.7764 31.788 31.7158 31.9219 31.6612C32.5935 31.388 33.1934 31.5838 33.4504 32.158C33.7025 32.7215 33.5015 33.2816 32.8699 33.5988C31.9005 34.0854 30.9133 34.5367 29.931 34.9974C21.8541 38.786 13.7768 42.5737 5.69895 46.3604C4.60704 46.8723 4.16108 46.7097 3.64514 45.6114C2.94788 44.127 2.2541 42.641 1.56291 41.1538C1.07942 40.1134 1.23119 39.6838 2.25658 39.2014C4.4384 38.1748 6.62276 37.1537 8.80498 36.1281C8.99856 36.0371 9.18415 35.9292 9.47311 35.7764C8.69459 35.0151 7.94886 34.2985 7.21719 33.5678C5.86612 32.2185 5.85139 30.7351 7.20968 29.3927C7.55452 29.052 7.63805 28.8067 7.39423 28.3539C7.05325 27.7206 6.79258 27.0375 6.56215 26.3539C6.4318 25.9672 6.25365 25.8371 5.84582 25.828C3.71428 25.7805 2.76923 24.8014 2.76681 22.6851C2.76517 21.2357 2.76084 19.7864 2.76812 18.337C2.77755 16.4541 3.79989 15.3918 5.66529 15.4059C6.23419 15.4102 6.45411 15.2048 6.62504 14.6973C6.90028 13.8802 7.26901 13.0945 7.61224 12.2616ZM23.3861 9.44932C18.1146 9.43619 13.4736 13.1762 12.4481 18.2636C11.38 23.5628 14.0777 28.7757 18.9448 30.853C19.3553 31.0282 19.6788 31.0324 20.0914 30.8368C24.4918 28.7516 28.9074 26.6985 33.303 24.6032C33.6168 24.4536 33.932 24.0812 34.0348 23.7472C36.2113 16.6763 30.8308 9.46788 23.3861 9.44932ZM36.5041 23.1268C38.1976 22.3314 39.8134 21.5813 41.4164 20.805C41.5716 20.7299 41.737 20.4963 41.7453 20.3287C41.7809 19.6058 41.7587 18.8801 41.7597 18.1555C41.7603 17.7214 41.5212 17.56 41.1156 17.5644C40.6327 17.5695 40.1496 17.5661 39.6666 17.5604C39.0345 17.5529 38.6658 17.2374 38.4344 16.6409C37.9215 15.3186 37.371 14.0101 36.8008 12.7114C36.5569 12.1557 36.5872 11.6866 37.0117 11.2541C37.3501 10.9093 37.6867 10.5622 38.0392 10.2323C38.3944 9.90008 38.4044 9.59645 38.0533 9.24886C36.9377 8.14429 35.8289 7.03268 34.7265 5.91482C34.3879 5.57139 34.0843 5.54222 33.7441 5.90677C33.4312 6.24208 33.0925 6.55305 32.7732 6.88259C32.3095 7.36111 31.8189 7.41326 31.2015 7.13594C29.9303 6.5649 28.6393 6.03453 27.3379 5.53575C26.7106 5.29528 26.3946 4.9059 26.3983 4.24257C26.4007 3.78362 26.3878 3.3244 26.3987 2.86572C26.4094 2.41603 26.2171 2.19641 25.7554 2.19815C24.1614 2.20423 22.5674 2.20416 20.9735 2.19748C20.5198 2.19557 20.3054 2.4054 20.3065 2.8536C20.3077 3.33672 20.2958 3.82003 20.3057 4.30294C20.3191 4.95326 19.9862 5.30136 19.3959 5.53152C18.0749 6.04668 16.7658 6.59443 15.4664 7.16219C14.9095 7.40554 14.4436 7.36836 14.0138 6.9372C13.6558 6.57796 13.2941 6.22234 12.9382 5.86096C12.644 5.56219 12.3662 5.56146 12.0667 5.86304C10.9265 7.01143 9.78271 8.15624 8.63391 9.29601C8.33364 9.59393 8.32304 9.87215 8.62281 10.1682C8.89777 10.4398 9.16992 10.7142 9.4427 10.9879C10.2444 11.7923 10.2602 12.0226 9.75758 13.0124C9.36535 13.7847 8.98862 14.5708 8.68285 15.3801C7.89406 17.4682 7.91174 17.4888 5.70355 17.5548C5.13764 17.5717 4.92876 17.8 4.93611 18.3433C4.95145 19.4784 4.93732 20.6139 4.94097 21.7493C4.94782 23.8684 4.72635 23.6568 6.83013 23.6648C7.82039 23.6685 8.01773 23.8625 8.35358 24.7605C8.79977 25.9535 9.28913 27.1329 9.81963 28.2909C10.2176 29.1596 10.2125 29.441 9.51593 30.1461C9.24432 30.421 8.97875 30.7029 8.69382 30.9633C8.34025 31.2865 8.29867 31.5855 8.66177 31.9405C9.54255 32.8016 10.4001 33.6865 11.2884 34.5397C11.4123 34.6587 11.7015 34.7516 11.8381 34.6894C13.5126 33.9274 15.1729 33.1341 16.8839 32.3268C10.0138 28.3187 8.61552 20.3085 11.38 14.7463C14.1901 9.09223 20.5384 6.13381 26.6233 7.65749C32.3813 9.09931 37.7596 14.943 36.5041 23.1268Z" fill="white"/>
<path d="M24.458 19.5084C25.2325 19.5084 25.9271 19.4998 26.6213 19.5106C27.4018 19.5229 27.9014 19.9485 27.9102 20.5865C27.9192 21.2304 27.4264 21.67 26.6476 21.6788C25.6098 21.6906 24.5716 21.6916 23.5338 21.6784C22.6826 21.6676 22.2928 21.2836 22.2885 20.4366C22.278 18.3844 22.2801 16.3321 22.2872 14.2798C22.29 13.4923 22.708 13.0015 23.349 12.9921C24.0116 12.9823 24.4508 13.4939 24.4553 14.3231C24.4643 16.012 24.458 17.701 24.458 19.5084Z" fill="white"/>
</svg>
