<svg width="75" height="70" viewBox="0 0 75 70" fill="none" xmlns="http://www.w3.org/2000/svg">
<path d="M37.4877 69.9951C31.9066 69.9951 26.3255 70.0061 20.7444 69.9916C16.1835 69.9798 12.5891 66.9891 11.7819 62.5006C11.3835 60.2851 11.8996 58.2295 13.0295 56.285C16.9159 49.5972 20.7721 42.892 24.6397 36.1933C26.2973 33.3224 27.9468 30.4469 29.6138 27.5815C33.3201 21.2105 41.707 21.2191 45.4016 27.6044C50.9482 37.1904 56.4485 46.8035 62.0309 56.3687C65.1902 61.7821 62.2139 68.1309 56.9762 69.5903C56.0455 69.8497 55.0479 69.9715 54.0801 69.9778C48.5495 70.0135 43.0185 69.9952 37.4877 69.9951ZM37.469 67.5804C43.102 67.5804 48.7352 67.6049 54.368 67.5731C59.435 67.5445 62.5709 62.2423 60.0612 57.8514C54.4516 48.0372 48.7992 38.2471 43.102 28.4834C40.5593 24.1259 34.4288 24.1369 31.8913 28.4921C26.2004 38.2596 20.5624 48.0579 14.9422 57.8662C14.5062 58.6271 14.2116 59.5493 14.1344 60.4216C13.7814 64.4127 16.7115 67.5654 20.7208 67.5767C26.3035 67.5925 31.8863 67.5807 37.469 67.5804Z" fill="white"/>
<path d="M12.9292 41.1768C13.6584 41.1768 14.2603 41.1749 14.8621 41.1773C15.5861 41.1802 16.1229 41.5056 16.4187 42.1629C16.6993 42.7862 16.63 43.4045 16.1863 43.9297C13.9976 46.5202 11.8129 49.1146 9.59148 51.6769C8.86631 52.5134 7.75045 52.4818 7.01983 51.6323C4.82489 49.0801 2.6554 46.506 0.485129 43.9327C0.044323 43.4101 -0.0562834 42.8067 0.236891 42.1723C0.540198 41.516 1.06622 41.1845 1.78947 41.1781C2.39019 41.1729 2.99101 41.1771 3.71584 41.1771C3.71584 40.8475 3.71584 40.5594 3.71584 40.2714C3.71584 34.9698 3.71514 29.6682 3.71635 24.3666C3.71666 22.9989 4.08432 22.6373 5.4669 22.6366C7.45186 22.6357 9.43685 22.6322 11.4218 22.6382C12.5119 22.6414 12.9262 23.0503 12.9271 24.139C12.9316 29.4909 12.9293 34.8427 12.9293 40.1946C12.9293 40.49 12.9292 40.7853 12.9292 41.1768ZM6.13014 25.0743C6.13014 25.433 6.13014 25.7279 6.13014 26.0228C6.13011 31.3744 6.13223 36.726 6.12818 42.0776C6.12735 43.1666 5.71112 43.5753 4.62722 43.5872C4.26108 43.5912 3.89485 43.5878 3.35069 43.5878C5.07449 45.6179 6.68393 47.5134 8.33658 49.4597C10.0064 47.4907 11.611 45.5983 13.3158 43.588C12.9049 43.588 12.7045 43.5886 12.5043 43.5879C10.7777 43.5817 10.5149 43.3145 10.5149 41.5643C10.5148 36.3634 10.5149 31.1625 10.5149 25.9616C10.5149 25.6731 10.5149 25.3846 10.5149 25.0743H6.13014Z" fill="white"/>
<path d="M71.2911 38.5208C71.9583 38.5208 72.5318 38.5112 73.1047 38.5231C73.8682 38.539 74.4677 38.8338 74.7847 39.5719C75.0909 40.2849 74.8782 40.8934 74.4055 41.4497C72.3065 43.9203 70.2168 46.3989 68.1046 48.8582C67.1926 49.9201 66.1344 49.906 65.23 48.8466C63.1415 46.4002 61.0694 43.9396 58.9778 41.4958C58.4754 40.9088 58.2713 40.2785 58.572 39.5522C58.8934 38.7758 59.5499 38.5224 60.338 38.5201C60.886 38.5185 61.434 38.5198 62.0776 38.5198C62.0776 38.1488 62.0776 37.8553 62.0776 37.5617C62.0776 32.2583 62.0765 26.9548 62.0784 21.6514C62.0789 20.3567 62.4266 20.0129 63.7405 20.0101C65.701 20.0059 67.6615 20.0056 69.622 20.0102C70.9117 20.0132 71.2897 20.3884 71.2902 21.6638C71.2921 26.9421 71.291 32.2204 71.291 37.4987C71.291 37.7975 71.2911 38.0964 71.2911 38.5208ZM71.6704 40.9333C71.2126 40.9333 70.9898 40.934 70.767 40.9332C69.1291 40.9271 68.877 40.6788 68.8769 39.0678C68.8766 33.8405 68.8767 28.6131 68.8767 23.3857V22.4821H64.492C64.492 22.8375 64.492 23.1356 64.492 23.4337C64.492 28.7364 64.4939 34.0392 64.4903 39.3419C64.4895 40.5303 64.0937 40.9205 62.9106 40.9326C62.5591 40.9363 62.2075 40.9332 61.674 40.9332C63.435 43.0044 65.0412 44.8937 66.6784 46.8192C68.3307 44.871 69.9334 42.9814 71.6704 40.9333Z" fill="white"/>
<path d="M20.6445 14.7906C20.6445 13.4475 20.6445 12.2177 20.6445 10.9878C20.6445 7.87093 20.641 4.75403 20.6464 1.63713C20.6485 0.405281 21.0516 0.00481906 22.2723 0.00257069C24.258 -0.00107102 26.2438 -0.000596018 28.2296 0.00244403C29.47 0.00434405 29.8614 0.383178 29.8631 1.61497C29.8685 5.68704 29.8653 9.75911 29.8654 13.8312C29.8654 14.1267 29.8654 14.4221 29.8654 14.7904C30.5256 14.7904 31.0982 14.7917 31.6708 14.7902C32.4455 14.7881 33.0502 15.0964 33.3661 15.8173C33.6685 16.5074 33.4925 17.1333 33.0091 17.7006C30.8902 20.1875 28.7863 22.6872 26.6611 25.1687C25.8167 26.1548 24.7201 26.1658 23.8834 25.1898C21.7406 22.6903 19.619 20.1727 17.4893 17.662C17.0095 17.0963 16.8468 16.4683 17.1774 15.7767C17.504 15.0933 18.0828 14.7962 18.8239 14.7914C19.3973 14.7876 19.9708 14.7906 20.6445 14.7906ZM30.2615 17.204C29.8405 17.204 29.617 17.2044 29.3936 17.2039C27.6925 17.1997 27.4513 16.9545 27.4512 15.2245C27.4508 11.2789 27.4511 7.33316 27.4511 3.3875C27.4511 3.09255 27.4511 2.79761 27.4511 2.47109H23.0589C23.0589 3.77729 23.059 5.02953 23.0589 6.28175C23.0587 9.44833 23.0646 12.6149 23.0544 15.7815C23.0512 16.761 22.6348 17.1812 21.7054 17.2019C21.2884 17.2112 20.8711 17.2035 20.2679 17.2035C21.9955 19.2383 23.606 21.1351 25.2649 23.089C26.9296 21.1284 28.5323 19.2406 30.2615 17.204Z" fill="white"/>
<path d="M48.5326 17.1553C48.5326 16.7899 48.5326 16.5188 48.5326 16.2477C48.5326 12.1745 48.5314 8.10132 48.5334 4.02814C48.534 2.7366 48.9002 2.3692 50.1879 2.36723C52.1994 2.36413 54.2109 2.36207 56.2223 2.36831C57.368 2.37186 57.7435 2.7537 57.7446 3.91591C57.7482 8.01424 57.746 12.1126 57.7461 16.2109V17.1555C58.3889 17.1555 58.9815 17.163 59.5738 17.1536C60.3205 17.1417 60.9081 17.4161 61.2249 18.1117C61.5353 18.7935 61.4142 19.4281 60.9266 20.0019C58.7941 22.5114 56.6768 25.034 54.5305 27.5315C53.6805 28.5206 52.5987 28.5005 51.7492 27.5076C49.6245 25.0245 47.516 22.5276 45.3997 20.0373C44.9226 19.4757 44.7306 18.8593 45.0498 18.1565C45.3797 17.4302 45.972 17.1367 46.7504 17.1531C47.3005 17.1646 47.851 17.1553 48.5326 17.1553ZM50.947 4.81529C50.947 5.18073 50.947 5.45411 50.947 5.72749C50.9469 9.82398 50.9491 13.9205 50.9453 18.0169C50.9443 19.1523 50.5394 19.552 49.401 19.5678C49.0461 19.5727 48.6911 19.5685 48.1694 19.5685C49.9142 21.6212 51.5133 23.5022 53.1525 25.4306C54.822 23.4636 56.419 21.5822 58.1281 19.5687C57.7116 19.5687 57.4912 19.5698 57.2707 19.5686C55.629 19.5596 55.3319 19.2639 55.3318 17.6366C55.3315 13.6407 55.3317 9.64471 55.3317 5.64877C55.3317 5.38143 55.3317 5.11413 55.3317 4.81529H50.947Z" fill="white"/>
<path d="M34.0264 44.2395C33.9421 42.1039 33.8841 39.9669 33.7644 37.8334C33.683 36.3828 34.0633 35.1304 35.3798 34.4359C36.786 33.6942 38.3058 33.6861 39.7124 34.4806C40.7772 35.0821 41.2859 36.103 41.2441 37.3254C41.0825 42.0496 40.9137 46.7737 40.7048 51.4959C40.6257 53.2846 39.2453 54.5728 37.5309 54.5914C35.7998 54.6102 34.3976 53.2959 34.3002 51.4754C34.1713 49.0653 34.1019 46.6521 34.007 44.2402C34.0135 44.24 34.02 44.2397 34.0264 44.2395ZM38.5806 44.229C38.5758 44.2288 38.5711 44.2286 38.5663 44.2285C38.6551 41.9719 38.7531 39.7155 38.8277 37.4584C38.8557 36.6125 38.5492 36.3837 37.5049 36.3835C36.4579 36.3834 36.1497 36.6104 36.1793 37.4556C36.3385 41.9946 36.5146 46.533 36.6797 51.0718C36.7009 51.6562 36.8506 52.1745 37.5388 52.1525C38.1774 52.1321 38.3075 51.6249 38.3266 51.0745C38.4061 48.7925 38.4951 46.5108 38.5806 44.229Z" fill="white"/>
<path d="M41.2836 60.6076C41.277 62.6913 39.5775 64.3927 37.5017 64.3937C35.3963 64.3947 33.6977 62.6634 33.717 60.536C33.7358 58.4576 35.4577 56.7716 37.5357 56.7969C39.6281 56.8224 41.2902 58.5123 41.2836 60.6076ZM37.5067 61.9729C38.2647 61.9678 38.8787 61.3324 38.8668 60.5653C38.8548 59.7943 38.2266 59.1959 37.4553 59.2209C36.712 59.2449 36.138 59.8347 36.1333 60.5793C36.1284 61.3453 36.752 61.978 37.5067 61.9729Z" fill="white"/>
</svg>
