<svg width="61" height="60" viewBox="0 0 61 60" fill="none" xmlns="http://www.w3.org/2000/svg">
<path d="M0.513672 28.2525C0.663435 27.136 0.776366 26.0131 0.968651 24.9039C3.02999 13.0127 11.861 3.57334 23.6464 0.840812C32.4361 -1.19716 40.5576 0.496551 47.9704 5.62867C48.6827 6.12184 49.0141 6.7815 48.8659 7.638C48.7338 8.4017 48.1132 9.05978 47.3098 9.08343C46.7888 9.09876 46.177 8.9202 45.7459 8.6245C43.3617 6.98944 40.8181 5.70095 38.0439 4.88454C23.5156 0.609102 8.55126 9.27341 5.03732 23.9901C1.63678 38.2317 10.8009 52.6484 25.152 55.634C39.4658 58.6118 53.3904 49.4171 56.2435 35.0519C57.4073 29.1922 56.6044 23.5629 53.9383 18.2079C53.8428 18.0159 53.7429 17.826 53.6499 17.6328C53.1554 16.6046 53.4925 15.5018 54.4449 15.0269C55.3742 14.5636 56.4525 14.9336 56.9761 15.9146C58.2502 18.3018 59.1894 20.8173 59.7696 23.4592C63.2389 39.2547 53.8032 54.803 38.1775 58.972C36.4542 59.4318 34.6512 59.5929 32.8855 59.8943C32.7154 59.9233 32.5474 59.9645 32.3784 60H28.6296C28.5 59.9672 28.3718 59.914 28.2405 59.9045C24.3219 59.6223 20.5846 58.6325 17.1054 56.8204C8.25392 52.2104 2.86748 44.9813 0.98076 35.172C0.764699 34.0486 0.666501 32.9026 0.513672 31.767C0.513672 30.5955 0.513672 29.424 0.513672 28.2525Z" fill="white"/>
<path d="M18.3998 31.1173V28.8628C17.6572 28.8628 16.9357 28.9157 16.2254 28.849C15.3919 28.7708 14.7567 28.0615 14.6772 27.2561C14.5891 26.3631 15.025 25.5986 15.8363 25.3004C16.1036 25.2021 16.4059 25.1702 16.6938 25.162C17.3765 25.1426 18.0607 25.1383 18.7431 25.1624C19.1016 25.175 19.2829 25.072 19.4347 24.717C21.472 19.9517 25.0288 16.9861 30.1226 16.0309C34.2255 15.2615 37.9846 16.225 41.3148 18.7644C42.2331 19.4647 42.4074 20.5948 41.7697 21.449C41.1233 22.315 39.9775 22.4282 39.0189 21.7208C33.9516 17.982 27.1036 19.1923 23.7668 24.418C23.6433 24.6113 23.5369 24.8154 23.3682 25.1091C23.6578 25.1222 23.8584 25.139 24.059 25.1392C26.343 25.1413 28.6271 25.1441 30.9111 25.1392C31.7117 25.1375 32.3645 25.3972 32.7691 26.1268C33.4074 27.2778 32.6815 28.7108 31.3731 28.86C30.9871 28.904 30.5935 28.8878 30.2035 28.8882C27.7632 28.8903 25.323 28.8892 22.8828 28.8892H22.1949V31.115C22.4498 31.115 22.6743 31.115 22.8988 31.115C25.5733 31.1152 28.2478 31.1095 30.9222 31.1181C32.0398 31.1217 32.8229 31.7222 32.9725 32.6517C33.1705 33.8817 32.3379 34.8472 31.0224 34.8583C28.8752 34.8763 26.7276 34.8636 24.5803 34.8638C24.2124 34.8639 23.8445 34.8638 23.3616 34.8638C23.5067 35.136 23.5996 35.337 23.7155 35.5238C27.0435 40.8917 34.2961 42.1124 39.2208 38.1446C39.5334 37.8927 39.8868 37.6405 40.2629 37.5289C41.1247 37.2729 41.9915 37.6878 42.3906 38.4578C42.8009 39.2495 42.6173 40.168 41.8959 40.7849C40.005 42.4017 37.846 43.4823 35.3981 43.9525C28.6105 45.2561 22.0654 41.723 19.4578 35.3438C19.3098 34.9816 19.1349 34.8329 18.7327 34.8538C18.0318 34.8901 17.3274 34.8758 16.6249 34.8601C15.4764 34.8345 14.6871 34.0926 14.6668 33.0417C14.6457 31.9459 15.4138 31.1649 16.5835 31.1212C17.1814 31.0988 17.7808 31.1173 18.3998 31.1173Z" fill="white"/>
<path d="M51.8995 13.6264C50.8279 13.6322 49.65 12.446 49.6349 11.3459C49.6211 10.331 50.4517 9.48137 51.4761 9.46265C52.5756 9.44257 53.774 10.6516 53.7677 11.7747C53.7619 12.8014 52.9352 13.6209 51.8995 13.6264Z" fill="white"/>
</svg>
