<svg width="71" height="70" viewBox="0 0 71 70" fill="none" xmlns="http://www.w3.org/2000/svg">
<g clip-path="url(#clip0_304_2838)">
<path d="M47.6223 44.6597C49.7257 46.7604 51.7817 48.8137 53.8448 50.8741C58.921 47.313 65.2129 48.8382 68.3863 53.0704C71.5667 57.312 71.1022 63.2909 67.2931 66.9427C63.4248 70.6513 57.502 70.8726 53.3348 67.5039C49.4834 64.3905 47.6766 57.8179 52.0131 52.559C50.0025 50.5485 47.9959 48.542 45.949 46.4952C45.0686 47.734 44.5197 49.1678 44.4063 50.7598C44.3951 50.9162 44.5487 51.146 44.6924 51.242C45.9039 52.0513 46.4607 53.1965 46.3002 54.6153C46.1356 56.0705 45.2872 57.0548 43.9013 57.5588C43.8375 57.582 43.7783 57.6181 43.8526 57.5817C43.8526 58.3507 43.9316 59.0502 43.8354 59.7247C43.6598 60.9549 42.9191 61.7904 41.7946 62.3199C41.5771 62.4224 41.3286 62.6962 41.2968 62.9197C40.9447 65.3906 38.9755 67.1988 36.5081 67.2697C34.0788 67.3395 31.9648 65.5935 31.5376 63.1518C31.4776 62.8091 31.4255 62.5731 30.9788 62.5025C28.7441 62.1488 27.5246 60.2122 28.1267 58.0437C28.1575 57.9329 28.1782 57.8194 28.2119 57.6701C27.9856 57.5732 27.7726 57.49 27.5665 57.3925C25.7248 56.5208 24.9692 54.2703 26.057 52.5797C26.4826 51.9185 26.5402 51.2967 26.4708 50.592C26.3319 49.1829 25.6432 47.5093 24.8873 46.7109C22.9345 48.6732 20.9812 50.6361 18.9617 52.6655C19.0436 52.7773 19.1706 52.9618 19.3086 53.1376C21.971 56.5279 22.2358 61.2491 19.9704 64.9653C17.6803 68.7221 13.2853 70.6497 8.94089 69.8026C4.7406 68.9836 1.31308 65.5047 0.68095 61.2968C0.0187737 56.8889 1.49952 53.281 5.19303 50.7972C8.93537 48.2805 12.843 48.4097 16.6536 50.7601C17.2617 51.1352 17.5402 51.028 17.9831 50.576C19.8229 48.6982 21.701 46.8578 23.5809 44.9879C17.6462 37.8428 16.4265 30.3889 21.8202 22.4779C20.495 21.1647 19.1679 19.8496 17.7997 18.4937C15.3758 20.5424 12.4771 21.3762 9.2382 20.841C6.55565 20.3978 4.36778 19.0543 2.69501 16.9056C-0.552873 12.7337 -0.143683 6.77331 3.63577 3.02583C7.36974 -0.676535 13.3503 -1.00622 17.4743 2.22158C21.5025 5.37445 23.0942 11.5204 19.5422 16.6133C20.8403 17.9081 22.1293 19.1938 23.4692 20.5302C26.7441 17.3098 30.8046 15.5882 35.5707 15.6356C40.317 15.6828 44.332 17.4689 47.757 20.8844C49.0112 19.4854 50.2547 18.0982 51.5401 16.6644C47.4512 10.6179 50.3856 4.3095 54.1774 1.77573C58.5587 -1.15195 64.3881 -0.40111 67.9123 3.59722C71.3446 7.49132 71.3479 13.4799 67.9444 17.423C64.6959 21.1866 58.519 22.6149 53.2894 18.4843C51.9944 19.8824 50.6914 21.2891 49.3821 22.7026C54.3632 30.3363 53.3497 37.681 47.6223 44.6597ZM31.6364 50.7295C31.5704 50.4625 31.5229 50.2386 31.4595 50.0192C30.1489 45.4909 28.8365 40.9631 27.5244 36.4352C27.4721 36.255 27.4204 36.0746 27.3668 35.8948C27.2039 35.3486 27.296 34.8485 27.7421 34.4885C28.1973 34.1212 28.677 34.2923 29.1157 34.5666C31.1658 35.8483 33.2181 37.1268 35.2543 38.4303C35.6017 38.6527 35.8418 38.6587 36.1917 38.4342C38.2856 37.0903 40.3866 35.7564 42.5143 34.4673C42.7941 34.2977 43.3376 34.2559 43.5846 34.419C43.8782 34.6128 44.0318 35.0771 44.1498 35.4543C44.2096 35.6454 44.0652 35.905 44.0003 36.1299C42.6673 40.7495 41.332 45.3684 39.9997 49.9882C39.9327 50.2204 39.8888 50.4594 39.8269 50.727H42.2745C42.4348 48.5309 43.1786 46.5822 44.5107 44.8697C45.1594 44.0358 45.8441 43.2299 46.5009 42.4021C49.4949 38.6284 50.9737 34.3967 49.9581 29.5886C47.7929 19.338 36.1326 14.4901 27.3777 20.2372C22.6381 23.3485 20.3091 27.8418 20.6905 33.5845C20.9143 36.9545 22.3088 39.8797 24.3813 42.4867C26.3363 44.946 28.2465 47.4098 28.4967 50.7296L31.6364 50.7295ZM10.1973 60.7828C8.0452 59.8091 7.14722 58.3489 7.45853 56.4139C7.71786 54.8019 9.07539 53.5755 10.8092 53.387C12.3804 53.2161 13.9718 54.1827 14.5582 55.6928C14.9602 56.728 14.9266 57.7598 14.4202 58.7597C13.9162 59.755 13.0595 60.3591 11.8787 60.819C14.4726 61.424 16.0998 62.863 16.9172 65.2026C20.1771 62.3413 20.0729 56.666 16.751 53.5019C13.2302 50.1482 7.59219 50.4968 4.56038 54.2556C1.82624 57.6453 2.18578 63.1027 5.28075 65.1895C6.83001 62.2003 7.27521 61.7965 10.1973 60.7828ZM11.939 11.836C14.4166 12.3684 16.0857 13.8187 16.9244 16.2194C20.2915 12.8328 20.0396 7.32248 16.4272 4.20082C12.8331 1.09495 7.29088 1.67095 4.42082 5.42997C1.61662 9.10271 2.47194 14.1161 5.32598 16.19C6.14614 13.8273 7.74965 12.3277 10.2875 11.8115C8.01818 10.7806 7.10508 9.30327 7.46749 7.3496C7.76974 5.72019 9.21448 4.46457 10.8704 4.39223C12.7152 4.31163 14.2011 5.35762 14.6895 7.08068C15.2386 9.01788 14.3956 10.4841 11.939 11.836ZM65.9037 65.1821C68.0947 63.4601 68.9123 59.6527 67.7864 56.5965C66.5158 53.1478 63.2116 51.0305 59.3862 51.2135C56.0745 51.372 53.0515 53.8306 52.1617 57.0892C51.3803 59.9509 52.4538 63.9263 54.171 65.036C54.8335 64.1282 55.3692 63.0967 56.1781 62.3692C56.9896 61.6395 58.0736 61.213 58.9816 60.6863C57.075 59.8248 56.1259 58.3125 56.4431 56.5184C56.7612 54.7192 58.0946 53.5122 59.9134 53.3772C61.5261 53.2575 63.0798 54.2977 63.6201 55.8588C63.9784 56.8938 63.8855 57.8932 63.3704 58.8531C62.8647 59.7956 62.0332 60.3653 60.9998 60.77C64.1745 62.0801 64.9323 62.7642 65.9037 65.1821ZM59.0287 11.942C56.6874 10.6096 55.8864 9.10367 56.4291 7.15751C56.8961 5.48281 58.3569 4.37092 60.0694 4.38671C61.794 4.40264 63.2114 5.54474 63.6217 7.24875C64.0763 9.13743 63.2166 10.6235 60.9382 11.8297C63.4055 12.3832 65.0883 13.8069 65.9104 16.202C69.0589 13.4311 69.099 8.09353 66.0548 4.85055C62.8124 1.39646 57.5248 1.28875 54.2263 4.62516C50.6876 8.20444 51.3855 13.4937 54.0721 16.2618C55.5475 13.3937 56.6205 12.447 59.0287 11.942ZM36.0699 53.0471C33.8147 53.0471 31.5596 53.0436 29.3044 53.0487C28.2966 53.0509 27.747 53.5247 27.75 54.365C27.7531 55.207 28.2891 55.6741 29.3167 55.6757C33.8035 55.6828 38.2904 55.6828 42.7773 55.6752C43.7059 55.6736 44.3631 55.0946 44.3646 54.3287C44.3662 53.5269 43.778 53.0499 42.765 53.0482C40.5333 53.0445 38.3016 53.0471 36.0699 53.0471ZM36.0706 57.8523C34.5918 57.8523 33.1128 57.8433 31.634 57.8555C30.6957 57.8633 30.1457 58.3699 30.1504 59.1804C30.1552 59.9899 30.7003 60.4868 31.6516 60.4902C34.5389 60.5005 37.4263 60.5005 40.3135 60.4905C41.2635 60.4872 41.8672 59.9237 41.8432 59.1159C41.8197 58.3229 41.263 57.8595 40.2959 57.8541C38.8875 57.8461 37.479 57.852 36.0706 57.8523ZM59.9427 18.9988C61.1471 18.6661 62.3084 18.3434 63.4708 18.0251C63.8606 17.9184 63.944 17.7005 63.8797 17.2952C63.5726 15.3605 61.9236 13.9629 59.936 13.9974C58.0383 14.0303 56.3209 15.5337 56.1316 17.3841C56.1102 17.5932 56.3462 17.9731 56.5397 18.0356C57.6411 18.3912 58.7657 18.6744 59.9427 18.9988ZM10.9871 68.0165C12.1866 67.6842 13.3505 67.3623 14.514 67.0392C14.877 66.9384 14.9571 66.7044 14.901 66.3437C14.6073 64.4556 12.9417 63.0184 11.019 63.0156C9.12295 63.0129 7.42977 64.4789 7.1292 66.3451C7.06913 66.718 7.14129 66.9369 7.50086 67.0384C8.64109 67.3604 9.78235 67.6788 10.9871 68.0165ZM59.9768 68.011C61.1698 67.6877 62.3145 67.3808 63.457 67.0661C63.875 66.9509 63.9487 66.6897 63.8725 66.2649C63.5379 64.3984 61.9093 63.0107 60.0047 63.0157C58.1249 63.0208 56.4063 64.5027 56.1118 66.3543C56.0544 66.7147 56.1413 66.9439 56.5062 67.0448C57.6482 67.3607 58.7891 67.6801 59.9768 68.011ZM10.9683 18.9936C12.1556 18.6618 13.3384 18.3261 14.5247 18.0027C14.9114 17.8973 14.9525 17.6551 14.8936 17.3077C14.5823 15.473 12.9766 14.0526 11.1339 13.9986C9.29179 13.9447 7.56411 15.331 7.15953 17.1508C7.05066 17.6405 7.11011 17.9642 7.64378 18.1034C8.72146 18.3846 9.7957 18.6788 10.9683 18.9936ZM30.4158 37.9433C30.3638 38.0342 30.3379 38.0588 30.3425 38.0744C31.5525 42.1865 32.7614 46.299 33.9898 50.4056C34.0335 50.5515 34.2708 50.6395 34.4178 50.7544C34.4922 50.584 34.6308 50.4139 34.6315 50.2432C34.6445 47.1689 34.6444 44.0945 34.6323 41.0202C34.6316 40.8343 34.5629 40.5625 34.431 40.4768C33.1046 39.6151 31.7583 38.784 30.4158 37.9433ZM36.9221 50.6919C37.4877 50.8897 37.5394 50.5241 37.6412 50.1792C38.6682 46.6978 39.7028 43.2187 40.7341 39.7385C40.9031 39.1681 41.0663 38.5958 41.2797 37.8607C39.8752 38.7389 38.6353 39.5323 37.3745 40.2908C37.028 40.4991 36.9103 40.7343 36.9135 41.1311C36.9313 43.3831 36.9221 45.6353 36.9221 47.8874C36.9221 48.8225 36.9221 49.7576 36.9221 50.6919ZM39.1265 62.6936H33.7276C33.7238 64.0746 34.9447 65.1884 36.4249 65.1792C37.9226 65.1699 39.1624 64.0446 39.1265 62.6936ZM12.527 8.19303C12.5237 7.33802 11.8664 6.67465 11.0172 6.66904C10.1667 6.66343 9.49693 7.3179 9.47942 8.17152C9.46159 9.04219 10.1651 9.75102 11.0313 9.73516C11.8792 9.71965 12.5304 9.04829 12.527 8.19303ZM60.0226 6.66988C59.1735 6.65828 58.5013 7.31078 58.484 8.16343C58.4665 9.02253 59.0984 9.69986 59.949 9.73387C60.8139 9.76843 61.53 9.07459 61.5307 8.20134C61.5314 7.34902 60.8741 6.68152 60.0226 6.66988ZM11.0143 58.7143C11.8861 58.7112 12.5235 58.0793 12.5283 57.2131C12.5331 56.3451 11.9034 55.7037 11.0346 55.6919C10.1379 55.6796 9.46198 56.3467 9.47784 57.2282C9.49325 58.0863 10.1457 58.7173 11.0143 58.7143ZM59.9925 58.7144C60.8615 58.7186 61.5145 58.0897 61.5323 57.2312C61.5506 56.3509 60.8746 55.6812 59.9785 55.6919C59.1078 55.7023 58.4795 56.34 58.4828 57.21C58.4861 58.0784 59.1202 58.7102 59.9925 58.7144Z" fill="white"/>
</g>
<defs>
<clipPath id="clip0_304_2838">
<rect width="69.9874" height="70" fill="white" transform="translate(0.505859)"/>
</clipPath>
</defs>
</svg>
