<svg width="71" height="70" viewBox="0 0 71 70" fill="none" xmlns="http://www.w3.org/2000/svg">
<g clip-path="url(#clip0_304_2843)">
<path d="M50.4429 39.9175C50.878 39.3409 51.2177 38.4814 51.827 38.1944C52.4754 37.889 53.379 38.1257 54.2513 38.1257V37.1885C54.2513 31.4265 54.251 25.6645 54.2516 19.9024C54.2517 18.5221 54.556 18.2242 55.9635 18.2236C57.9857 18.2227 60.0078 18.2204 62.03 18.2246C63.2165 18.227 63.5793 18.5965 63.5795 19.7951C63.5807 26.6389 63.5834 33.4828 63.5726 40.3267C63.5719 40.7748 63.6682 41.0795 64.0317 41.4054C64.9758 42.2518 65.8424 43.1845 66.7431 44.0795C67.1817 44.5153 67.3118 45.0467 66.9887 45.5542C66.2632 46.694 66.3919 47.7153 66.931 48.9416C67.3725 49.9455 67.9004 50.5207 68.9215 50.8246C69.9595 51.1336 70.0788 51.3967 70.0802 52.4675C70.0815 53.5729 70.0623 54.6786 70.0869 55.7835C70.1026 56.4876 69.846 56.9978 69.1509 57.1642C67.9378 57.4547 67.3124 58.1708 66.834 59.3609C66.3854 60.4767 66.3118 61.3526 66.9275 62.3529C67.3219 62.9938 67.1845 63.5894 66.6211 64.1225C65.7843 64.914 64.9745 65.7351 64.1756 66.5652C63.6855 67.0743 63.1235 67.2417 62.5297 66.8699C61.4587 66.1992 60.514 66.2904 59.3401 66.7988C58.2694 67.2626 57.6173 67.7971 57.3092 68.9129C57.0502 69.851 56.7313 69.9945 55.7537 69.9962C54.6015 69.9982 53.4493 69.9878 52.2972 69.9999C51.6504 70.0067 51.1666 69.7415 51.0245 69.1141C50.734 67.8313 49.9566 67.1959 48.7278 66.7129C47.6871 66.3039 46.8849 66.2481 45.9223 66.7717C44.978 67.2853 44.7115 67.1816 43.943 66.4146C43.1441 65.6172 42.3545 64.8103 41.547 64.0218C41.0807 63.5664 40.9918 63.0629 41.2699 62.4863C41.4559 62.1004 41.6397 61.7409 41.2356 61.3479C41.1133 61.229 41.1222 60.9507 41.1142 60.7437C41.097 60.2975 41.1077 59.8502 41.107 59.4034C41.1051 58.0449 41.0084 57.9071 39.7249 57.4192C39.4397 57.3108 39.0894 57.2647 38.8891 57.0678C38.5956 56.7794 38.2334 56.3919 38.2108 56.0273C38.1295 54.7153 38.1793 53.3953 38.1777 52.0782C38.1771 51.5483 38.4335 51.1847 38.9059 50.9748C39.1843 50.8512 39.4757 50.7568 39.7612 50.6493C40.9803 50.1903 41.1063 50.0114 41.1066 48.7043C41.1076 43.9065 41.107 39.1088 41.107 34.311C41.1071 31.6769 41.104 29.0429 41.1087 26.4088C41.1107 25.275 41.4477 24.9406 42.5808 24.9386C44.7206 24.9347 46.8603 24.9336 49.0001 24.9391C50.0653 24.9418 50.4401 25.316 50.4411 26.3856C50.4453 30.6895 50.4429 34.9933 50.443 39.2972C50.443 39.5411 50.4429 39.7849 50.4429 39.9175ZM40.4345 52.7048V54.0302C40.4345 55.2667 40.419 55.3139 41.5619 55.6908C42.3909 55.9642 42.8174 56.4474 43.0337 57.294C43.2346 58.0805 43.559 58.8637 43.9779 59.5586C44.4467 60.3363 44.4565 61.0084 44.0548 61.8021C43.5308 62.8372 43.5713 62.8576 44.3822 63.6686C45.3139 64.6004 45.3284 64.6304 46.541 64.042C47.2253 63.71 47.8191 63.7063 48.4611 64.1199C48.8722 64.3846 49.3202 64.6507 49.788 64.7581C51.4188 65.1326 52.7043 65.8259 52.7924 67.7385H54.1081C55.3616 67.7385 55.3997 67.7513 55.8012 66.5587C56.0705 65.7591 56.5538 65.3652 57.365 65.1363C58.259 64.8841 59.1167 64.467 59.947 64.0379C60.5022 63.7509 60.9993 63.6947 61.5505 63.9665C61.8451 64.1118 62.1645 64.2119 62.446 64.3776C62.8185 64.597 63.096 64.5401 63.3532 64.2022C63.4803 64.0352 63.6471 63.8984 63.7964 63.7484C64.6826 62.8582 64.7185 62.8405 64.1614 61.7136C63.7876 60.9576 63.8393 60.3254 64.2619 59.5992C64.671 58.896 65.0261 58.1232 65.2075 57.3355C65.4206 56.4104 65.8999 55.8521 66.791 55.6766C67.6803 55.5014 67.8991 55.0093 67.8449 54.1448C67.7616 52.8175 67.8322 52.7879 66.5277 52.3208C65.8391 52.0743 65.4479 51.6598 65.2721 50.9464C65.1215 50.3355 64.9548 49.6845 64.6122 49.1741C63.8044 47.9705 63.6931 46.8219 64.5056 45.5911C64.5936 45.4577 64.5493 45.1263 64.4386 44.9915C63.9927 44.4483 63.4968 43.9463 63.0354 43.4466C62.5305 43.6688 62.1288 43.8099 61.7626 44.0145C61.0477 44.414 60.4204 44.3177 59.7159 43.913C58.9902 43.4962 58.1956 43.149 57.3876 42.9399C56.5417 42.7209 56.0555 42.2994 55.7851 41.4682C55.4152 40.3311 55.369 40.3461 54.1894 40.3461C52.8944 40.3461 52.8828 40.3418 52.4352 41.5514C52.2144 42.1479 51.9372 42.6054 51.2606 42.8319C50.2203 43.1802 49.2375 43.6992 48.1998 44.0573C47.775 44.2039 47.2168 44.2654 46.8123 44.1152C45.2688 43.5422 45.3054 43.528 44.1287 44.6341C43.6782 45.0576 43.5463 45.4128 43.8886 45.946C44.4892 46.8815 44.5654 47.8121 43.8355 48.7434C43.638 48.9953 43.4917 49.3191 43.4195 49.6324C43.0433 51.2664 42.3874 52.6226 40.4345 52.7048ZM56.5595 20.5024C56.5381 20.6754 56.5121 20.7882 56.5121 20.9009C56.5097 26.4962 56.5089 32.0916 56.5128 37.6869C56.5129 37.8451 56.5276 38.0241 56.6004 38.1581C56.9395 38.782 57.3677 39.3664 57.6342 40.0181C57.8419 40.5261 58.1121 40.8024 58.6377 40.9552C59.2192 41.1242 59.7737 41.3974 60.3248 41.6572C61.1615 42.0517 61.3217 41.9694 61.3218 41.0772C61.3227 34.4475 61.3226 27.8177 61.321 21.188C61.3209 20.9647 61.3014 20.7414 61.2901 20.5024L56.5595 20.5024ZM43.4092 42.0047C43.4511 42.0531 43.493 42.1015 43.5348 42.1498C44.3901 40.6537 45.4875 40.9282 46.6406 41.5973C46.7213 41.6442 46.8115 41.6747 46.8978 41.7117C47.7271 42.0681 48.1844 41.7632 48.1846 40.8484C48.1857 36.5451 48.1856 32.2418 48.1838 27.9385C48.1837 27.7109 48.1646 27.4833 48.1541 27.251H43.4092L43.4092 42.0047Z" fill="white"/>
<path d="M27.95 46.776C27.9498 42.2842 27.9489 37.7925 27.9503 33.3007C27.9507 31.8993 28.2463 31.6064 29.6467 31.6061C31.6923 31.6057 33.7378 31.604 35.7834 31.6069C36.9013 31.6085 37.2957 31.9786 37.2962 33.0696C37.3003 42.2177 37.3001 51.3659 37.2965 60.5141C37.2961 61.6211 36.922 61.983 35.8032 61.9853C33.6636 61.9898 31.524 61.9907 29.3844 61.9847C28.3189 61.9816 27.954 61.6177 27.9526 60.5335C27.9469 55.9477 27.9502 51.3618 27.95 46.776ZM30.2534 33.8965V59.6776H34.9979V33.8965H30.2534Z" fill="white"/>
<path d="M47.7029 15.6953C45.0882 17.7836 42.6203 19.8516 40.0534 21.7882C28.6678 30.3778 16.1405 36.8222 2.70368 41.5385C1.8487 41.8386 1.24408 41.6326 0.99235 40.9681C0.739005 40.2993 1.08956 39.7197 1.98755 39.4035C9.35538 36.809 16.4837 33.6765 23.3303 29.9109C31.2458 25.5574 38.6429 20.4575 45.4596 14.523C45.6309 14.3738 45.7945 14.2158 46.0141 14.0137C45.2913 14.0137 44.6482 13.9953 44.0065 14.0181C43.0929 14.0505 42.5786 13.7032 42.537 12.9854C42.4951 12.2631 42.9342 11.8289 43.8549 11.7689C45.6144 11.6543 47.3754 11.5579 49.137 11.4817C50.0296 11.4432 50.5293 12.0402 50.3993 12.9324C50.1452 14.6763 49.8884 16.4198 49.6254 18.1624C49.501 18.9872 49.0096 19.4186 48.328 19.3238C47.6295 19.2267 47.2742 18.6275 47.4024 17.7748C47.5033 17.1044 47.5966 16.4329 47.7029 15.6953Z" fill="white"/>
<path d="M24.1432 50.5191C24.1434 53.8124 24.1456 57.1057 24.1423 60.399C24.1411 61.6653 23.8194 61.9847 22.5584 61.9861C20.4652 61.9884 18.372 61.9902 16.2789 61.9853C15.165 61.9827 14.7964 61.6193 14.7957 60.5045C14.7921 53.8474 14.792 47.1902 14.7957 40.533C14.7964 39.4184 15.1647 39.0554 16.2793 39.0528C18.4195 39.048 20.5597 39.0475 22.6999 39.0534C23.7677 39.0563 24.1381 39.4213 24.1404 40.4981C24.1477 43.8384 24.1431 47.1788 24.1432 50.5191ZM21.8366 59.6979V41.3686H17.1007V59.6979H21.8366Z" fill="white"/>
<path d="M55.1771 14.8847C54.0326 14.871 53.3859 14.0034 53.6317 13.0191C53.8816 12.018 54.1338 11.0153 54.4469 10.0331C54.5891 9.58692 54.4677 9.35283 54.1257 9.09237C53.3413 8.495 52.5897 7.85474 51.8156 7.24359C51.2859 6.82545 51.0264 6.30118 51.2121 5.63909C51.4068 4.94505 51.9209 4.61424 52.6255 4.57488C53.6338 4.51855 54.6421 4.45194 55.6512 4.42884C56.0881 4.41884 56.3174 4.27078 56.4622 3.84368C56.7781 2.91148 57.1597 2.00174 57.5003 1.07761C57.7441 0.416082 58.1804 0.00435433 58.9036 3.33452e-05C59.6296 -0.00430755 60.0702 0.415505 60.3174 1.06749C60.6751 2.01034 61.046 2.94858 61.38 3.89975C61.5073 4.26245 61.6929 4.41391 62.087 4.42229C63.0727 4.44326 64.0574 4.51281 65.0426 4.55954C65.785 4.59477 66.3712 4.85714 66.5999 5.63155C66.8211 6.38055 66.455 6.89104 65.9032 7.32929C65.1492 7.92812 64.415 8.55275 63.6453 9.13035C63.3041 9.38646 63.251 9.63433 63.3692 10.0294C63.6649 11.0176 63.9062 12.022 64.1825 13.0163C64.3606 13.6573 64.1883 14.19 63.6759 14.5822C63.1313 14.9991 62.5369 14.9788 61.9674 14.6136C61.0782 14.0433 60.212 13.4356 59.3049 12.8964C59.1058 12.7781 58.7167 12.7803 58.5161 12.8985C57.6475 13.4103 56.8238 13.9978 55.9672 14.5312C55.6771 14.7119 55.3384 14.8143 55.1771 14.8847ZM58.9074 3.76512C58.6454 4.43593 58.4262 4.94085 58.2503 5.46046C57.9827 6.25138 57.4558 6.63523 56.618 6.63923C56.0797 6.6418 55.5417 6.70066 54.8102 6.7464C55.4298 7.24656 55.8647 7.59881 56.3009 7.94958C56.8719 8.4087 57.0812 8.97626 56.8682 9.69769C56.6989 10.2709 56.5637 10.8543 56.3803 11.5608C56.9915 11.1675 57.4924 10.8649 57.9723 10.5318C58.6135 10.0867 59.2332 10.1074 59.8675 10.5386C60.3383 10.8586 60.8204 11.1618 61.4499 11.5717C61.2451 10.8144 61.0871 10.255 60.9433 9.69194C60.7635 8.98773 60.9285 8.39883 61.525 7.94222C61.9817 7.5926 62.4186 7.21689 62.998 6.74353C62.232 6.69795 61.6512 6.65271 61.0695 6.63151C60.3556 6.6055 59.8778 6.26904 59.6236 5.60271C59.4094 5.04148 59.1877 4.48316 58.9074 3.76512Z" fill="white"/>
<path d="M10.9856 54.1066C10.9857 56.2454 10.9896 58.3842 10.9841 60.5229C10.9812 61.6426 10.6344 61.9832 9.50212 61.9855C7.36381 61.9898 5.22546 61.9914 3.08716 61.9847C2.02931 61.9814 1.65237 61.5997 1.65139 60.5316C1.64747 56.2305 1.64745 51.9295 1.65133 47.6285C1.65231 46.539 2.04741 46.1524 3.14972 46.1502C5.28803 46.1459 7.42638 46.1444 9.56468 46.1509C10.5875 46.154 10.9789 46.5366 10.9829 47.5493C10.9914 49.735 10.9855 51.9208 10.9856 54.1066ZM8.69 48.4467H3.94494V59.6853H8.69V48.4467Z" fill="white"/>
<path d="M46.0022 53.9491C46.1098 49.4235 49.7972 45.8097 54.215 45.9003C58.7186 45.9927 62.3402 49.6914 62.2635 54.1202C62.1852 58.6407 58.4171 62.2947 53.9734 62.1592C49.4802 62.0222 45.898 58.3327 46.0022 53.9491ZM54.0399 59.8974C57.2562 59.9683 59.9351 57.3661 60.0021 54.1059C60.0677 50.9103 57.4208 48.2044 54.1832 48.1573C51.0042 48.1111 48.3632 50.6843 48.2612 53.9275C48.1607 57.1205 50.7791 59.8255 54.0399 59.8974Z" fill="white"/>
</g>
<defs>
<clipPath id="clip0_304_2843">
<rect width="69.1756" height="70" fill="white" transform="translate(0.912109)"/>
</clipPath>
</defs>
</svg>
