<svg width="71" height="70" viewBox="0 0 71 70" fill="none" xmlns="http://www.w3.org/2000/svg">
<g clip-path="url(#clip0_304_2854)">
<path d="M0.246094 31.0167C0.545845 30.6773 0.810055 30.2961 1.1513 30.0053C3.05442 28.3836 4.96744 26.7732 6.89979 25.1866C7.24005 24.9072 7.29895 24.6338 7.23761 24.2386C6.8405 21.6792 6.45705 19.1177 6.07198 16.5565C5.92725 15.5939 6.34451 14.9689 7.3195 14.7518C9.82366 14.1941 12.3295 13.6432 14.8405 13.1176C15.3191 13.0174 15.5671 12.8198 15.728 12.3375C16.5184 9.96977 17.3544 7.61728 18.1771 5.26038C18.6137 4.00946 19.1483 3.72963 20.4284 4.07924C22.8587 4.74296 25.2905 5.40171 27.7163 6.08145C28.1086 6.19139 28.3742 6.14713 28.6857 5.85132C30.5326 4.09806 32.4053 2.37201 34.2695 0.636973C35.1778 -0.208398 35.8129 -0.213131 36.7179 0.627703C38.55 2.32984 40.3908 4.02279 42.2006 5.74837C42.5773 6.10756 42.8956 6.20618 43.4031 6.06038C45.7803 5.37753 48.1697 4.73693 50.5552 4.08279C51.8275 3.73389 52.3844 4.02055 52.8151 5.25379C53.6381 7.6105 54.4742 9.96299 55.2627 12.3313C55.424 12.8156 55.6759 13.0096 56.1492 13.1095C58.6371 13.6344 61.1203 14.1815 63.6018 14.7358C64.6937 14.9797 65.067 15.5819 64.8975 16.6878C64.5088 19.2253 64.1188 21.7629 63.7723 24.3062C63.7356 24.5755 63.903 24.9782 64.1132 25.1591C66.0433 26.8196 68.0037 28.445 69.9555 30.0802C70.9076 30.8779 70.997 31.5047 70.2763 32.5009C68.8244 34.5075 67.3806 36.5203 65.897 38.5034C65.5538 38.9621 65.4841 39.3216 65.7154 39.8617C66.6712 42.0931 67.5745 44.3471 68.4952 46.5935C69.0336 47.9073 68.8297 48.4538 67.5682 49.0752C65.3281 50.1787 63.0914 51.2892 60.8415 52.3726C60.4444 52.5638 60.2799 52.7855 60.2396 53.2396C60.0105 55.8204 59.7413 58.3978 59.4773 60.9754C59.3728 61.9955 58.8855 62.4354 57.8463 62.4139C55.2774 62.3609 52.7084 62.3012 50.1406 62.2113C49.6727 62.1949 49.3961 62.3117 49.1378 62.7161C47.7929 64.8223 46.4169 66.9086 45.0481 68.9994C44.3385 70.0833 43.6823 70.2444 42.5652 69.6193C40.3854 68.3995 38.1992 67.1906 36.032 65.9487C35.6206 65.7129 35.3196 65.7128 34.908 65.9485C32.7207 67.2012 30.5163 68.4242 28.3136 69.65C27.2345 70.2506 26.6303 70.0943 25.95 69.0541C24.582 66.9628 23.2027 64.8785 21.8629 62.7691C21.5756 62.3168 21.2705 62.1906 20.7489 62.2105C18.2503 62.3057 15.7499 62.3581 13.2499 62.4137C12.0291 62.441 11.5834 62.0662 11.4586 60.8402C11.2009 58.3079 10.9613 55.7735 10.7517 53.2369C10.7142 52.7838 10.5555 52.5586 10.1556 52.3662C7.90539 51.2837 5.66947 50.1714 3.42822 49.0703C2.16365 48.449 1.95873 47.9105 2.49847 46.5944C3.42837 44.327 4.34601 42.0543 5.30483 39.7992C5.5131 39.3093 5.44667 38.9746 5.13927 38.5592C3.49153 36.3329 1.87404 34.084 0.246094 31.8429C0.246094 31.5675 0.246094 31.2922 0.246094 31.0167ZM67.4635 31.6231C65.4363 29.9134 63.4817 28.2473 61.5047 26.6084C60.9482 26.1471 60.7458 25.6096 60.8548 24.9126C61.0706 23.5312 61.2762 22.1482 61.4777 20.7647C61.6485 19.5921 61.8076 18.4179 61.974 17.2289C61.7938 17.1738 61.6889 17.1335 61.5804 17.1097C59.2534 16.5996 56.9302 16.0707 54.5964 15.5935C53.7454 15.4195 53.1868 15.033 52.9542 14.1628C52.7713 13.4787 52.4967 12.8191 52.2614 12.1492C51.6634 10.4472 51.0645 8.74548 50.4493 6.99593C48.4312 7.54537 46.4707 8.08914 44.5047 8.61208C41.6012 9.38435 42.2274 9.56174 40.0084 7.50609C38.514 6.12164 37.0254 4.73101 35.5115 3.32211C35.3076 3.50187 35.1353 3.64683 34.9707 3.80008C33.2578 5.39449 31.5387 6.98248 29.8384 8.59022C29.3006 9.09872 28.7336 9.24432 28.0169 9.03352C26.5449 8.60056 25.0602 8.21067 23.5792 7.80856C22.5737 7.53555 21.5657 7.27193 20.5396 6.99905C19.6749 9.47125 18.8287 11.8426 18.0212 14.2271C17.7656 14.9821 17.3106 15.431 16.5266 15.5582C16.2329 15.6058 15.9425 15.6751 15.6517 15.7392C13.4637 16.222 11.2759 16.7058 9.07789 17.1916C9.07789 17.4165 9.05568 17.5993 9.08124 17.7751C9.41748 20.0887 9.74074 22.4044 10.1121 24.7125C10.2462 25.546 10.0653 26.1854 9.38159 26.7077C8.72603 27.2084 8.11103 27.7624 7.47989 28.295C6.17024 29.4002 4.86173 30.5067 3.54308 31.6209C3.72351 31.8765 3.86587 32.0839 4.01407 32.2871C5.37887 34.1585 6.7327 36.0382 8.11714 37.895C8.56505 38.4958 8.63542 39.0814 8.33614 39.7557C8.02969 40.4461 7.75869 41.1524 7.47464 41.8528C6.79652 43.5248 6.11986 45.1974 5.43216 46.8957C5.70446 47.0376 5.9235 47.1573 6.1472 47.2675C8.22297 48.29 10.2955 49.3192 12.3784 50.327C12.992 50.6239 13.3435 51.0537 13.399 51.748C13.4978 52.9822 13.6257 54.2141 13.7455 55.4465C13.8777 56.8065 14.0145 58.1659 14.1513 59.5463C14.4666 59.5463 14.6933 59.5507 14.9197 59.5456C17.2363 59.493 19.5532 59.454 21.869 59.3763C22.6403 59.3504 23.1676 59.6313 23.5813 60.2813C24.8244 62.2349 26.0999 64.1678 27.364 66.108C27.497 66.312 27.6386 66.5105 27.7898 66.7315C29.973 65.5169 32.1128 64.3693 34.2059 63.1422C35.1271 62.6021 35.9015 62.6099 36.823 63.1534C38.9107 64.3847 41.0512 65.5264 43.2026 66.7225C43.358 66.5023 43.4932 66.3234 43.6153 66.1359C44.8288 64.2723 46.0743 62.4283 47.237 60.5335C47.7713 59.6629 48.4299 59.3117 49.4429 59.3735C51.0677 59.4726 52.6984 59.4812 54.3269 59.5143C55.1469 59.5309 55.9674 59.5172 56.8304 59.5172C56.8781 59.1373 56.9328 58.7789 56.9669 58.4185C57.1695 56.2725 57.3856 54.1275 57.5579 51.9789C57.6257 51.1329 57.9758 50.5828 58.7787 50.2519C59.6239 49.9036 60.4288 49.4574 61.2507 49.0527C62.6846 48.3466 64.118 47.6395 65.5843 46.9168C65.4849 46.6494 65.4121 46.4353 65.3265 46.2264C64.4581 44.107 63.6108 41.9785 62.7059 39.8747C62.3672 39.0872 62.447 38.4588 62.9607 37.7749C64.4751 35.7588 65.9429 33.7077 67.4635 31.6231Z" fill="white"/>
<path d="M35.5056 58.8661C22.6456 58.8794 12.2349 48.4921 12.1993 35.6121C12.1637 22.7299 22.5921 12.2785 35.4876 12.2727C48.3826 12.2669 58.8177 22.7091 58.7936 35.5946C58.7696 48.4746 48.384 58.8527 35.5056 58.8661ZM35.5054 56.0673C46.7925 56.0608 56.0056 46.84 55.9965 35.559C55.9873 24.2708 46.7684 15.0606 35.4874 15.069C24.2006 15.0775 14.9919 24.2942 14.9961 35.578C15.0004 46.8593 24.2238 56.0738 35.5054 56.0673Z" fill="white"/>
<path d="M31.0705 43.1762C32.7614 41.2484 34.4225 39.3544 36.0838 37.4604C38.9726 34.1667 41.8571 30.8692 44.758 27.5862C45.006 27.3054 45.3317 27.0248 45.6762 26.9129C46.2659 26.7214 46.8198 26.9107 47.1865 27.4452C47.5874 28.0297 47.537 28.6276 47.0927 29.159C46.372 30.021 45.6238 30.8602 44.8827 31.7051C40.7686 36.3954 36.6541 41.0854 32.5374 45.7734C31.5238 46.9276 30.823 46.9437 29.7307 45.8484C26.8312 42.9408 23.9324 40.0326 21.0355 37.1223C20.8583 36.9443 20.6746 36.7634 20.5397 36.5543C20.1903 36.0127 20.2847 35.3113 20.7416 34.8503C21.1948 34.393 21.9061 34.2886 22.4448 34.6339C22.673 34.7801 22.8685 34.9829 23.0621 35.1767C25.5423 37.6601 28.0192 40.1469 30.498 42.6317C30.6715 42.8056 30.854 42.9707 31.0705 43.1762Z" fill="white"/>
</g>
<defs>
<clipPath id="clip0_304_2854">
<rect width="70.5065" height="70" fill="white" transform="translate(0.246094)"/>
</clipPath>
</defs>
</svg>
