<svg width="66" height="65" viewBox="0 0 66 65" fill="none" xmlns="http://www.w3.org/2000/svg">
<path d="M32.532 0C14.5925 0 0 14.5786 0 32.4985C0 50.4214 14.5925 65 32.532 65C50.4715 65 65.064 50.4214 65.064 32.4985C65.064 14.5786 50.4717 0 32.532 0ZM33.5085 44.4647C33.2027 45.1318 32.838 45.7282 32.4026 46.2749L21.087 21.7018C20.8547 21.1965 20.6753 20.6763 20.537 20.0916C23.7548 20.1209 30.4112 20.1149 44.1946 20.0975L44.6271 20.1003L33.5085 44.4647ZM25.1079 5.88329C22.2079 7.23196 18.0369 9.8357 16.2308 14.1673C14.9778 17.1764 15.1219 20.3971 16.6601 23.7414L28.1523 48.6876C24.3873 49.1842 20.1929 47.0066 19.3634 46.5452C13.1482 43.0865 8.536 37.2856 6.3417 34.1353C5.64165 33.1274 4.877 31.4023 5.02109 29.8479C6.1124 18.3488 14.2658 8.89828 25.1079 5.88329ZM16.9925 50.8034C18.9193 51.8758 22.7842 53.6744 26.9815 53.6744C28.3876 53.6744 29.7288 53.4687 30.9702 53.0631C34.0705 52.0433 36.4176 49.8305 37.9444 46.4834L49.4423 21.2816C49.8246 21.5343 50.1334 21.7872 50.3982 22.0691C53.0836 24.9228 53.0777 30.0536 52.9512 32.1252C52.4395 40.4534 44.4917 52.1786 39.8003 58.4292C39.4796 58.8524 38.6531 59.4225 37.9796 59.5634C36.1294 59.9395 34.2968 60.1306 32.532 60.1306C21.1518 60.1306 10.8068 52.9398 6.72998 42.4223C9.96566 45.9957 13.413 48.8109 16.9925 50.8034ZM57.8193 32.425C57.987 29.7215 57.9428 22.9743 53.9425 18.734C51.7541 16.4065 48.8039 15.2281 45.1712 15.2281C40.2445 15.234 27.2434 15.234 21.1605 15.2281C23.0696 11.9309 27.4081 10.1325 28.7493 9.64162C32.8025 8.16068 37.6147 7.49057 43.0916 7.67275C44.8241 7.72562 46.3214 8.59253 46.386 8.63074C54.8986 13.5766 60.187 22.7216 60.187 32.4985C60.187 41.6495 55.5455 50.2626 47.9627 55.3847C52.4219 48.6963 57.3692 39.7481 57.8193 32.425Z" fill="#FA1B38"/>
</svg>
