<svg width="56" height="70" viewBox="0 0 56 70" fill="none" xmlns="http://www.w3.org/2000/svg">
<path d="M25.3947 69.9998C23.9345 69.5006 23.3365 68.4623 23.4509 66.9495C23.4916 66.4118 23.4574 65.8685 23.4574 65.245C22.4548 65.245 21.5275 65.2487 20.6003 65.2442C18.5944 65.2346 17.5753 64.2215 17.572 62.2198C17.5705 61.3381 17.4672 60.4402 18.0002 59.634C18.0713 59.5265 17.9367 59.27 17.8752 59.09C17.42 57.7558 17.3456 56.414 17.9338 55.1126C18.1008 54.743 18.4456 54.3848 18.8011 54.1869C19.2479 53.9382 19.3909 53.6642 19.3739 53.1705C19.3363 52.0781 19.3414 50.9831 19.3667 49.89C19.4141 47.8445 18.5787 46.3209 16.8454 45.2097C13.3384 42.9611 10.6814 39.9336 9.10765 36.072C6.07211 28.6235 6.97646 21.6065 11.854 15.2153C15.1458 10.9018 19.6041 8.41099 24.9604 7.53715C25.0951 7.51517 25.2314 7.49847 25.3676 7.48975C26.0445 7.4464 26.4931 7.74394 26.5998 8.30278C26.7052 8.85518 26.3272 9.35125 25.6516 9.50396C24.7427 9.7094 23.8101 9.83054 22.9205 10.0973C16.9658 11.8825 12.7649 15.6693 10.6375 21.4934C7.56177 29.9134 10.5089 38.5438 17.9925 43.51C20.3227 45.0562 21.4603 47.1601 21.4169 49.9385C21.3978 51.1664 21.4137 52.3948 21.4137 53.6715H34.5718C34.5718 52.8677 34.535 52.0554 34.5803 51.2477C34.6502 50.0026 34.6459 48.7319 34.9114 47.5245C35.2487 45.9901 36.1968 44.7641 37.5068 43.8774C39.6928 42.398 41.6694 40.7143 43.1893 38.5231C44.8274 36.1615 45.8573 33.5695 46.312 30.7398C46.3337 30.6052 46.3528 30.4694 46.3861 30.3374C46.5614 29.6425 47.0041 29.2961 47.5843 29.3945C48.1652 29.493 48.4819 29.9687 48.3844 30.6881C48.0703 33.0071 47.3957 35.2198 46.3185 37.2984C44.6834 40.4538 42.4229 43.0765 39.4238 44.9944C37.3967 46.2906 36.464 48.0506 36.6133 50.4406C36.6742 51.4165 36.5985 52.4005 36.6415 53.3784C36.6519 53.6137 36.8312 53.9283 37.0294 54.0538C37.9326 54.6255 38.4288 55.4055 38.4114 56.4787C38.3956 57.4468 38.5757 58.4459 37.9818 59.3357C37.9225 59.4246 37.9867 59.634 38.0489 59.7602C38.6268 60.9325 38.5229 62.1673 38.2686 63.3658C38.035 64.4663 37.0602 65.1819 35.9274 65.2211C34.8193 65.2594 33.7088 65.2294 32.5245 65.2294C32.5245 65.8905 32.4907 66.4564 32.531 67.017C32.6384 68.5125 32.0119 69.5092 30.5909 69.9999L25.3947 69.9998ZM27.9697 55.772C25.5582 55.772 23.1467 55.7712 20.7352 55.7723C19.6998 55.7728 19.6239 55.8523 19.621 56.9145C19.6207 57.0283 19.6208 57.142 19.6209 57.2557C19.6224 58.37 19.7202 58.4717 20.8154 58.4719C25.4337 58.4729 30.052 58.4723 34.6702 58.4723C35.8169 58.4723 36.3817 57.8922 36.3644 56.7318C36.3522 55.9075 36.2277 55.7747 35.409 55.7734C32.9293 55.7695 30.4495 55.772 27.9697 55.772ZM27.9458 63.1931C30.4515 63.1931 32.9571 63.1841 35.4627 63.1994C36.0929 63.2033 36.4085 62.9662 36.3664 62.3156C36.3532 62.1114 36.365 61.9057 36.3646 61.7007C36.3628 60.5876 36.3038 60.5248 35.215 60.5246C30.5454 60.5236 25.8758 60.5242 21.2062 60.5242C20.1455 60.5242 19.6171 61.0445 19.6209 62.0851C19.6246 63.1089 19.7021 63.1918 20.7023 63.1927C23.1168 63.1949 25.5313 63.1934 27.9458 63.1931ZM30.4728 65.2922H25.5161C25.5161 66.0388 25.4767 66.7427 25.5424 67.4366C25.5599 67.6226 25.8931 67.9181 26.0897 67.925C27.3586 67.9694 28.6306 67.9695 29.8994 67.9249C30.096 67.918 30.4289 67.6213 30.4466 67.4348C30.5123 66.7411 30.4728 66.0374 30.4728 65.2922Z" fill="white"/>
<path d="M31.2767 17.5621C32.4121 18.0988 33.4015 17.9457 34.245 17.1027C34.5672 16.7809 34.8752 16.4413 35.2217 16.1477C35.8966 15.5759 36.6136 15.5515 37.255 16.1483C38.1549 16.9854 39.0272 17.8559 39.8621 18.7577C40.4624 19.4061 40.4114 20.1613 39.7798 20.8368C39.2044 21.4522 38.604 22.0454 37.993 22.6254C37.7413 22.8643 37.749 23.055 37.8325 23.39C38.1089 24.4991 38.7283 24.9422 39.8705 24.7378C40.356 24.6509 40.8707 24.7108 41.3713 24.7276C42.3407 24.7602 42.8989 25.2936 42.9221 26.2603C42.9493 27.3987 42.947 28.5385 42.925 29.6771C42.9051 30.7076 42.3466 31.2506 41.29 31.2817C40.4933 31.3051 39.6949 31.3047 38.8984 31.2794C38.5248 31.2676 38.3408 31.376 38.2018 31.7472C37.7118 33.0557 37.6934 33.0486 38.6986 34.0544C39.069 34.425 39.4568 34.7802 39.8042 35.1713C40.4245 35.8697 40.4411 36.6338 39.8047 37.3122C39.0103 38.1591 38.1859 38.9801 37.3406 39.7764C36.6164 40.4585 35.8363 40.4301 35.1011 39.7318C34.5067 39.1672 33.9583 38.5525 33.3448 38.0107C33.1798 37.865 32.8087 37.7959 32.6051 37.8762C31.271 38.4031 31.2777 38.4197 31.2774 39.8823C31.2774 40.3835 31.2945 40.8855 31.2719 41.3856C31.2283 42.3495 30.6776 42.9062 29.7153 42.9256C28.5767 42.9486 27.437 42.9473 26.2984 42.9266C25.3031 42.9085 24.7467 42.3445 24.7192 41.3396C24.6975 40.5429 24.6981 39.7446 24.7209 38.948C24.7319 38.5622 24.6006 38.393 24.2463 38.1834C23.2616 37.6006 22.5544 37.7943 21.9124 38.6962C21.6259 39.0988 21.2262 39.4252 20.8573 39.7638C20.1419 40.4202 19.3696 40.449 18.6676 39.791C17.8204 38.997 16.9978 38.1741 16.2022 37.3283C15.5444 36.6289 15.5601 35.8516 16.2219 35.1376C16.7945 34.5199 17.3954 33.9267 18.0093 33.3498C18.2721 33.1029 18.2298 32.9025 18.1487 32.5819C17.8762 31.5047 17.2702 31.0659 16.1538 31.273C15.6913 31.3587 15.1992 31.3001 14.7213 31.2839C13.6329 31.247 13.0826 30.7063 13.0648 29.6288C13.0466 28.5357 13.0455 27.4417 13.0651 26.3486C13.0844 25.2672 13.6361 24.7412 14.7368 24.7258C15.534 24.7147 16.3318 24.7088 17.1286 24.7298C17.4765 24.739 17.6412 24.6259 17.7712 24.2873C18.2899 22.9363 18.3052 22.9424 17.283 21.9198C16.9287 21.5653 16.5625 21.2217 16.2239 20.8528C15.5563 20.1257 15.5336 19.3744 16.2028 18.6671C17.001 17.8236 17.8221 16.9996 18.6674 16.2033C19.3751 15.5367 20.1311 15.5518 20.8576 16.2242C21.459 16.7808 22.0345 17.3671 22.597 17.9635C22.8462 18.2277 23.0414 18.2498 23.4111 18.1546C24.5304 17.8663 24.9142 17.2148 24.7278 16.1014C24.6461 15.614 24.697 15.1005 24.7195 14.6004C24.7604 13.6895 25.25 13.1176 26.1419 13.0793C27.3693 13.0265 28.6023 13.0257 29.8298 13.0768C30.7528 13.1153 31.2508 13.6959 31.2719 14.6487C31.2936 15.6261 31.2767 16.6044 31.2767 17.5621ZM29.2263 40.8487C29.2263 39.8703 29.2245 38.9405 29.2268 38.0108C29.2293 37.0258 29.3984 36.8287 30.3482 36.4887C31.0308 36.2444 31.7031 35.9639 32.3598 35.6565C33.2665 35.2322 33.5111 35.2548 34.226 35.9654C34.8953 36.6308 35.5623 37.2985 36.163 37.898C36.7829 37.2886 37.3292 36.7516 37.9369 36.1542C37.2634 35.4955 36.5739 34.8038 35.8645 34.133C35.3457 33.6424 35.2613 33.1339 35.5874 32.4806C35.9511 31.7521 36.2608 30.9905 36.5221 30.219C36.7632 29.5073 37.1865 29.1968 37.9407 29.2267C38.8905 29.2644 39.8429 29.2358 40.8328 29.2358V26.7743C39.8107 26.7743 38.8352 26.7673 37.8599 26.7767C37.1781 26.7833 36.7715 26.4825 36.5449 25.8234C36.2726 25.0314 35.9535 24.2497 35.5824 23.4993C35.258 22.8433 35.3512 22.3366 35.873 21.8497C36.5883 21.1823 37.2832 20.4928 37.9818 19.8175C37.3661 19.1941 36.8106 18.6317 36.1973 18.0107C35.5068 18.7165 34.8123 19.4046 34.1437 20.117C33.631 20.6633 33.1074 20.7307 32.4345 20.3816C31.7324 20.0174 30.9895 19.7149 30.2371 19.4695C29.5225 19.2364 29.1951 18.8254 29.2189 18.0696C29.2496 17.0975 29.2264 16.1237 29.2264 15.1343H26.7648C26.7648 16.1641 26.7527 17.1612 26.7691 18.1577C26.78 18.8185 26.4917 19.207 25.8645 19.4292C25.0743 19.7091 24.284 20.0098 23.5395 20.3909C22.8575 20.74 22.3424 20.6421 21.8335 20.1035C21.1632 19.3941 20.4646 18.7115 19.837 18.0767C19.2068 18.6695 18.6317 19.2103 18.0027 19.802C18.7408 20.5196 19.4542 21.2226 20.1787 21.9139C20.6572 22.3705 20.723 22.8601 20.4281 23.4545C20.1059 24.1039 19.8008 24.7678 19.5613 25.4511C19.1342 26.6699 19.023 26.7743 17.7019 26.7747C16.8472 26.775 15.9925 26.7748 15.1624 26.7748V29.2364C16.211 29.2364 17.2093 29.2481 18.2072 29.2322C18.8465 29.222 19.208 29.5172 19.4219 30.1115C19.7058 30.9004 20.0023 31.6919 20.3816 32.4373C20.7252 33.1126 20.6579 33.6345 20.1138 34.1478C19.4044 34.8171 18.7206 35.5133 18.084 36.1406C18.6801 36.7742 19.2166 37.3445 19.8071 37.9723C20.4937 37.2686 21.1742 36.5984 21.8221 35.8982C22.3292 35.3503 22.8537 35.2624 23.5308 35.5969C24.2608 35.9575 25.0251 36.2572 25.794 36.5283C26.4638 36.7645 26.7952 37.1634 26.7724 37.8936C26.742 38.8664 26.7649 39.8408 26.7649 40.8487L29.2263 40.8487Z" fill="white"/>
<path d="M30.5826 7.47849C32.925 7.7582 35.2101 8.43252 37.3392 9.56075C43.0593 12.5919 46.6666 17.2692 48.1265 23.5844C48.2594 24.1592 48.3433 24.7469 48.4208 25.3325C48.5103 26.0088 48.169 26.5065 47.5825 26.6083C47.0498 26.7008 46.5811 26.3392 46.4277 25.6957C46.1277 24.4374 45.9611 23.1318 45.5227 21.9244C42.9972 14.9692 38.0288 10.8854 30.763 9.56939C30.5843 9.53701 30.4018 9.5178 30.2279 9.46822C29.6335 9.29871 29.299 8.83824 29.3843 8.32471C29.4742 7.78351 29.9053 7.46415 30.5826 7.47849Z" fill="white"/>
<path d="M26.9754 2.68296C26.9751 2.16116 26.9531 1.63818 26.9806 1.11781C27.0171 0.42493 27.4372 -0.00955152 28.011 0.000159471C28.5666 0.00958253 28.9857 0.419721 29.0047 1.08012C29.0359 2.16812 29.0355 3.25831 29.0052 4.34636C28.987 5.00195 28.5642 5.4207 28.0147 5.43269C27.4433 5.44512 27.0168 5.00679 26.9812 4.31616C26.9532 3.7731 26.9755 3.22745 26.9754 2.68296Z" fill="white"/>
<path d="M2.69977 28.9983C2.13235 28.9983 1.56448 29.0118 0.997577 28.9945C0.405024 28.9764 0.0543287 28.6213 0.0133907 28.0622C-0.0279399 27.4978 0.285927 27.0455 0.863665 27.022C2.1067 26.9714 3.35504 26.9744 4.59784 27.0302C5.13907 27.0545 5.44139 27.4805 5.41699 28.0263C5.39139 28.5994 5.05368 28.9573 4.46969 28.9885C3.88127 29.0198 3.28987 28.9954 2.69977 28.9954C2.69977 28.9963 2.69977 28.9973 2.69977 28.9983Z" fill="white"/>
<path d="M53.2843 29.0007C52.717 29.0007 52.1486 29.0219 51.5826 28.995C50.9802 28.9663 50.5614 28.5596 50.5665 28.0224C50.572 27.4401 50.8924 27.0336 51.4608 27.0096C52.6597 26.9588 53.8638 26.9539 55.0625 27.0049C55.6538 27.03 56.0547 27.5533 55.9814 28.0665C55.8962 28.6626 55.535 28.994 54.9183 29.0023C54.3737 29.0096 53.8289 29.0038 53.2843 29.0038C53.2843 29.0028 53.2843 29.0018 53.2843 29.0007Z" fill="white"/>
<path d="M12.4113 11.4325C12.2137 11.6796 12.0501 12.0601 11.7732 12.1812C11.4913 12.3046 10.9749 12.3092 10.774 12.1289C9.83169 11.2829 8.9332 10.3822 8.08125 9.44445C7.71223 9.03829 7.85282 8.53261 8.25534 8.16846C8.63878 7.82156 9.12287 7.76741 9.49615 8.11279C10.3942 8.94369 11.2493 9.82198 12.0997 10.7023C12.243 10.8506 12.2766 11.1047 12.4113 11.4325Z" fill="white"/>
<path d="M48.2294 8.84442C47.9917 9.23076 47.8602 9.5502 47.6388 9.78471C46.9537 10.5102 46.2421 11.2113 45.5258 11.9064C45.0006 12.4162 44.3781 12.4565 43.9581 12.0403C43.5327 11.6189 43.566 10.9982 44.077 10.4742C44.8213 9.71095 45.5518 8.92794 46.3589 8.2359C46.6132 8.01786 47.1335 7.93297 47.4607 8.02943C47.7563 8.11659 47.9545 8.53435 48.2294 8.84442Z" fill="white"/>
<path d="M12.4488 44.6192C12.2461 44.9771 12.1476 45.267 11.9561 45.4684C11.2369 46.2248 10.498 46.9634 9.74555 47.6871C9.20482 48.2071 8.6074 48.2177 8.18085 47.7609C7.77199 47.323 7.80121 46.7708 8.30683 46.2483C9.04861 45.4819 9.77759 44.6954 10.5885 44.0077C10.8563 43.7806 11.3974 43.7015 11.7456 43.7985C12.0283 43.8773 12.2093 44.3208 12.4488 44.6192Z" fill="white"/>
<path d="M47.1434 48.2245C46.7649 47.9948 46.4426 47.8658 46.2075 47.6442C45.481 46.9595 44.7799 46.2472 44.0844 45.5306C43.5657 44.9961 43.5256 44.3895 43.9479 43.9619C44.394 43.5103 44.9581 43.5354 45.5095 44.0712C46.2744 44.8147 47.0569 45.5465 47.75 46.3536C47.9677 46.6071 48.0538 47.126 47.9576 47.4518C47.8701 47.7484 47.4536 47.9477 47.1434 48.2245Z" fill="white"/>
<path d="M27.9947 22.521C31.0157 22.5226 33.4754 24.9816 33.4717 27.9966C33.468 31.0059 30.9906 33.4865 27.9907 33.4845C24.9898 33.4826 22.5148 31.0008 22.5137 27.9926C22.5125 24.9779 24.9753 22.5194 27.9947 22.521ZM27.9952 24.5718C26.0942 24.5705 24.5653 26.0948 24.5651 27.9915C24.5649 29.8792 26.11 31.4319 27.9902 31.4335C29.8707 31.4351 31.4184 29.8843 31.4203 27.9965C31.4222 26.0996 29.8956 24.5731 27.9952 24.5718Z" fill="white"/>
</svg>
