<svg width="56" height="70" viewBox="0 0 56 70" fill="none" xmlns="http://www.w3.org/2000/svg">
<path d="M9.84629 51.6788C11.8147 50.4964 13.7636 49.4083 15.6217 48.1827C17.0408 47.2466 18.4664 47.1938 19.9833 47.7349C24.6261 49.391 29.268 51.0499 33.9012 52.7324C34.8878 53.0907 35.8279 53.5759 36.8092 53.9506C37.0119 54.028 37.3422 53.9401 37.5473 53.8175C40.8328 51.8512 44.1112 49.8728 47.3833 47.8844C49.2878 46.7271 51.271 46.3762 53.3645 47.2933C56.4381 48.6397 56.6626 52.1776 54.2274 54.0474C48.3928 58.5273 42.6643 63.1452 36.8943 67.709C35.4814 68.8266 33.933 69.2069 32.1401 68.8031C26.4595 67.5237 20.7663 66.2999 15.0799 65.0459C14.284 64.8703 13.5316 64.9468 12.8333 65.3557C11.8609 65.9252 10.8967 66.5102 9.95125 67.1228C9.79798 67.2221 9.69701 67.4928 9.67818 67.6942C9.53566 69.2194 8.73437 69.9847 7.20892 69.9931C5.65679 70.0017 4.10453 70.0027 2.5524 69.9926C1.02532 69.9827 0.12647 69.1026 0.124501 67.5961C0.117594 62.2615 0.116873 56.927 0.125222 51.5924C0.127524 50.1239 1.03935 49.2342 2.51087 49.228C3.96897 49.2219 5.4271 49.2266 6.88519 49.2266C8.86748 49.2266 9.44398 49.6861 9.84629 51.6788ZM38.3555 55.997C39.0139 57.9395 38.6359 59.5777 37.2007 60.9021C35.873 62.1273 34.299 62.3964 32.6107 61.757C29.4931 60.5763 26.386 59.3679 23.2771 58.1648C22.4511 57.8451 22.1291 57.3041 22.364 56.6828C22.6194 56.0076 23.2258 55.7986 24.0672 56.1156C25.3855 56.6122 26.6997 57.1195 28.0154 57.6231C29.7476 58.286 31.4715 58.9718 33.2142 59.6063C34.7704 60.1728 36.2486 59.3178 36.4435 57.7869C36.5809 56.7069 35.9495 55.7158 34.794 55.2935C32.4128 54.4232 30.0223 53.5782 27.6354 52.7235C24.8947 51.7422 22.1499 50.7723 19.415 49.7753C18.3509 49.3874 17.3912 49.4346 16.4005 50.0612C14.3557 51.3545 12.2714 52.5864 10.1841 53.8109C9.77839 54.0489 9.65623 54.3105 9.65898 54.761C9.67768 57.8165 9.66783 60.8722 9.67094 63.9279C9.67113 64.123 9.70258 64.3181 9.72752 64.6058C10.2268 64.2921 10.6428 64.0364 11.053 63.7718C12.3889 62.9103 13.8201 62.499 15.412 62.8436C21.0361 64.0612 26.6707 65.2335 32.2765 66.5304C33.6606 66.8507 34.7606 66.649 35.8082 65.7811C35.989 65.6313 36.186 65.5012 36.3702 65.3553C41.8981 60.9762 47.4269 56.5983 52.9514 52.215C54.1503 51.2636 53.9402 49.9527 52.503 49.3845C51.2042 48.871 49.9607 49.0623 48.7827 49.7494C47.4839 50.507 46.1996 51.2895 44.91 52.0629C42.7358 53.3668 40.5625 54.6722 38.3555 55.997ZM7.41174 67.7928V51.4358H2.39679V67.7928H7.41174Z" fill="white"/>
<path d="M28.0361 38.9937C27.7433 37.7343 27.0562 36.8073 26.035 36.0768C22.7438 33.7228 20.6778 30.567 20.0932 26.548C18.7489 17.3064 25.0101 10.3627 32.2942 8.95239C40.2163 7.41857 48.1338 12.6263 49.7203 20.6498C50.936 26.798 48.8167 31.8233 43.9626 35.7176C43.0528 36.4475 42.162 37.1548 41.7806 38.3132C41.6397 38.7412 41.6542 39.0409 42.0639 39.3979C43.7954 40.907 43.4361 43.4554 41.3389 44.5538C40.8716 44.7986 40.697 45.0822 40.6508 45.5605C40.5651 46.4483 40.4488 47.3333 40.3368 48.2183C40.2292 49.0685 39.8526 49.4185 38.9895 49.4214C36.2856 49.4304 33.5816 49.4307 30.8777 49.4208C30.0553 49.4178 29.7012 49.0971 29.5743 48.2543C29.4311 47.3027 29.3339 46.344 29.1818 45.394C29.1516 45.2053 29.0043 44.9556 28.8426 44.8796C26.0858 43.5846 25.7009 40.9632 28.0361 38.9937ZM39.2192 38.7068C39.5144 36.5214 40.9309 35.242 42.5329 33.9807C46.3554 30.9712 48.0077 26.9599 47.3991 22.1228C46.4498 14.5779 38.8367 9.48864 31.5168 11.4413C25.2406 13.1155 21.0944 19.4286 22.1094 25.8241C22.6652 29.3259 24.395 32.1491 27.2544 34.2524C28.6198 35.2567 29.7133 36.4494 30.1128 38.1324C30.2264 38.6108 30.4155 38.7195 30.8607 38.715C32.7881 38.6957 34.7158 38.7068 36.6434 38.7068C37.4858 38.7068 38.3282 38.7068 39.2192 38.7068ZM34.7089 40.7864C33.1364 40.7864 31.5638 40.7828 29.9913 40.7878C29.1162 40.7906 28.6347 41.1688 28.6127 41.8507C28.5899 42.5599 29.0877 42.9808 29.996 42.9825C33.1176 42.9885 36.2392 42.9883 39.3608 42.9824C40.2446 42.9807 40.7732 42.534 40.7477 41.8458C40.7231 41.1786 40.2213 40.7905 39.3561 40.7878C37.807 40.783 36.258 40.7864 34.7089 40.7864ZM31.562 47.317H38.2349C38.3046 46.5859 38.3699 45.902 38.4408 45.159C36.1425 45.159 33.9437 45.1584 31.7448 45.1608C31.6324 45.1609 31.52 45.1872 31.3499 45.2085C31.4224 45.9283 31.4916 46.6169 31.562 47.317Z" fill="white"/>
<path d="M17.9902 7.20181C18.2326 6.91613 18.4252 6.50202 18.7348 6.37708C19.0417 6.25315 19.5941 6.28029 19.8179 6.48375C20.9433 7.50649 22.0143 8.5915 23.0658 9.69147C23.4855 10.1304 23.4105 10.7428 22.9981 11.1444C22.5881 11.5437 21.9791 11.5964 21.5413 11.1762C20.4601 10.1385 19.4067 9.07111 18.3639 7.99464C18.1986 7.82406 18.1463 7.5442 17.9902 7.20181Z" fill="white"/>
<path d="M51.3902 7.55926C51.1595 7.95354 51.0452 8.27097 50.8315 8.49287C49.9197 9.44001 48.9856 10.3662 48.0452 11.2854C47.4928 11.8253 46.8251 11.8463 46.3596 11.3743C45.8568 10.8644 45.8823 10.2865 46.4666 9.71228C47.4212 8.77418 48.3608 7.81642 49.3733 6.94422C49.653 6.70325 50.2093 6.58878 50.5641 6.68648C50.8832 6.77433 51.1002 7.23279 51.3902 7.55926Z" fill="white"/>
<path d="M29.1818 6.7234C28.8623 7.01698 28.5884 7.41673 28.2121 7.57824C27.7013 7.79748 27.2342 7.52601 26.9966 7.02306C26.6671 6.32568 26.3852 5.60579 26.0851 4.8946C25.8122 4.24793 25.5223 3.60749 25.277 2.95045C25.0654 2.38368 25.3072 1.87149 25.8698 1.62398C26.4238 1.38026 26.9436 1.49337 27.1908 2.03783C27.8386 3.464 28.4194 4.92055 29.0233 6.36649C29.0493 6.42848 29.0399 6.50516 29.047 6.57497L29.1818 6.7234Z" fill="white"/>
<path d="M44.1457 2.87392C44.0814 3.07298 44.0302 3.27746 43.9506 3.47022C43.4513 4.67971 42.9494 5.88822 42.4406 7.09374C42.1645 7.74773 41.6239 8.00769 41.0461 7.78222C40.472 7.55819 40.1909 6.96593 40.4371 6.34119C40.9597 5.01538 41.5048 3.69769 42.0753 2.39182C42.3113 1.85182 42.8126 1.59644 43.3464 1.8409C43.7114 2.00804 43.9652 2.4176 44.2687 2.71878C44.2277 2.77049 44.1867 2.82222 44.1457 2.87392Z" fill="white"/>
<path d="M35.8177 3.23359C35.8177 3.93848 35.8356 4.64393 35.8126 5.34807C35.7905 6.02593 35.393 6.41195 34.761 6.42634C34.122 6.44087 33.6782 6.07351 33.6641 5.40482C33.6334 3.94885 33.6331 2.49144 33.6614 1.03541C33.6748 0.34549 34.0847 -0.00376744 34.7385 3.06461e-05C35.3816 0.00377329 35.7887 0.377954 35.812 1.04866C35.8373 1.77618 35.8177 2.50522 35.8177 3.23359Z" fill="white"/>
<path d="M34.7784 14.2954C39.9176 14.4524 43.9162 18.3022 44.2507 23.317C44.3177 24.3213 44.0124 24.8302 43.2931 24.9133C42.537 25.0007 42.0814 24.5338 42.0458 23.5823C41.975 21.6927 41.281 20.0688 39.9683 18.72C38.5612 17.2742 36.8416 16.521 34.8116 16.5064C34.6239 16.505 34.4322 16.5222 34.2492 16.491C33.6567 16.3897 33.2487 16.0832 33.2164 15.4373C33.1866 14.8421 33.5924 14.4104 34.2512 14.3219C34.4596 14.294 34.6726 14.3001 34.7784 14.2954Z" fill="white"/>
</svg>
