<svg width="70" height="70" viewBox="0 0 70 70" fill="none" xmlns="http://www.w3.org/2000/svg">
<path d="M34.9846 53.766C24.6533 53.7575 16.24 45.3346 16.2363 34.9964C16.2327 24.6119 24.6555 16.2052 35.0366 16.232C45.3848 16.2588 53.7784 24.6752 53.7662 35.0129C53.7541 45.3296 45.2964 53.7745 34.9846 53.766ZM34.9872 18.49C25.8579 18.5034 18.4912 25.8742 18.494 34.9922C18.4968 44.0957 25.9073 51.5119 34.9971 51.5081C44.077 51.5042 51.5155 44.059 51.5086 34.9819C51.5016 25.8804 44.0845 18.4766 34.9872 18.49Z" fill="white"/>
<path d="M56.3596 60.7138C53.6574 57.7079 54.6221 54.3059 56.4467 52.6299C58.5888 50.6622 61.8782 50.6749 63.9976 52.6677C65.8456 54.4052 66.6907 57.7752 64.0698 60.6825C64.2288 60.7795 64.3743 60.881 64.5305 60.9616C67.6367 62.5646 69.4352 65.1043 69.9594 68.5516C70.0845 69.3738 69.6389 69.9184 68.8108 69.9896C68.6473 70.0036 68.4819 69.9957 68.3173 69.9957C62.9108 69.996 57.5043 69.9965 52.0978 69.9955C50.6632 69.9953 50.2748 69.5588 50.5229 68.1434C51.0536 65.1151 52.673 62.8325 55.311 61.2659C55.4723 61.1701 55.6404 61.0856 55.8066 60.9981C55.9697 60.9123 56.1344 60.8294 56.3596 60.7138ZM67.3961 67.7075C66.9734 64.5683 63.2996 62.0307 59.5449 62.2569C56.4794 62.4416 53.0798 65.2925 53.0466 67.7075H67.3961ZM63.4802 56.779C63.5513 55.0176 62.0944 53.4743 60.2973 53.4074C58.5303 53.3415 57.0017 54.7849 56.9268 56.5898C56.8537 58.3538 58.2991 59.8841 60.1082 59.9581C61.8728 60.0302 63.4073 58.5835 63.4802 56.779Z" fill="white"/>
<path d="M13.6243 60.7221C16.217 61.9179 18.0332 63.7684 18.9949 66.3933C19.243 67.0702 19.3946 67.7932 19.5017 68.5084C19.6496 69.4955 19.2129 69.9799 18.2161 69.9908C16.6646 70.0078 15.1129 69.9958 13.5613 69.9958C9.58826 69.9959 5.61522 69.9968 1.64218 69.9953C0.228212 69.9947 -0.17229 69.5061 0.0954563 68.1075C0.720417 64.8432 2.51872 62.46 5.4777 60.9504C5.61982 60.8779 5.75968 60.801 5.90479 60.7238C3.6558 57.5371 3.75059 54.6446 6.15009 52.5232C8.26021 50.6576 11.4393 50.718 13.5425 52.6372C15.3242 54.2631 16.3384 57.6933 13.6243 60.7221ZM16.9601 67.6974C16.6203 64.7229 13.003 62.115 9.44462 62.2419C6.17773 62.3585 2.73716 65.1017 2.61627 67.6974H16.9601ZM13.0354 56.668C13.0274 54.8589 11.5568 53.3934 9.76184 53.4059C7.97123 53.4185 6.50027 54.9076 6.50776 56.7002C6.51522 58.4918 8.00725 59.9721 9.79405 59.9606C11.5996 59.949 13.0435 58.4823 13.0354 56.668Z" fill="white"/>
<path d="M13.6307 9.5562C16.3189 10.8018 18.1852 12.7502 19.1082 15.5398C19.2986 16.1152 19.4249 16.7199 19.5067 17.3211C19.6468 18.3522 19.2224 18.8111 18.1704 18.8123C13.75 18.8171 9.32957 18.8145 4.90912 18.8145C3.75698 18.8145 2.60485 18.8185 1.45271 18.8133C0.301754 18.8081 -0.136547 18.3058 0.0583959 17.1671C0.627908 13.84 2.41026 11.3867 5.40323 9.81892C5.54854 9.7428 5.69829 9.67516 5.84525 9.60206C5.8652 9.59213 5.88071 9.57333 5.8983 9.55864C3.69029 6.11964 3.80842 3.29092 6.24404 1.27878C8.43929 -0.53477 11.5973 -0.399122 13.6375 1.55695C15.3221 3.1721 16.3286 6.51216 13.6307 9.5562ZM16.9944 16.5232C16.3945 13.4171 13.0357 10.9679 9.55974 11.0526C6.29272 11.1323 2.99207 13.7093 2.59111 16.5232H16.9944ZM9.80665 2.26388C7.99054 2.25471 6.52513 3.69359 6.51432 5.49666C6.5035 7.29959 7.95961 8.77604 9.75847 8.78613C11.5696 8.79629 13.0296 7.35382 13.04 5.54389C13.0504 3.71775 11.6263 2.27305 9.80665 2.26388Z" fill="white"/>
<path d="M56.3593 9.55029C53.6143 6.46588 54.6901 3.06843 56.4582 1.4613C58.5937 -0.479848 61.8222 -0.490366 63.9614 1.46498C65.7293 3.08089 66.8037 6.45129 64.0684 9.53924C64.2731 9.6504 64.4667 9.75739 64.662 9.86119C67.7 11.4761 69.4519 13.9992 69.9641 17.3905C70.093 18.244 69.618 18.8082 68.7398 18.8096C63.0497 18.8184 57.3596 18.8187 51.6696 18.8093C50.7686 18.8078 50.3233 18.2296 50.4655 17.3164C51.0029 13.8643 52.8285 11.346 55.9457 9.76597C56.0701 9.7029 56.1931 9.63706 56.3593 9.55029ZM52.994 16.5248H67.4099C66.9514 13.6518 63.6979 11.119 60.3938 11.052C56.9292 10.9818 53.5918 13.4377 52.994 16.5248ZM60.2012 2.26266C58.3908 2.26503 56.9255 3.72672 56.9295 5.52614C56.9336 7.31816 58.4154 8.7903 60.2124 8.78761C62.0062 8.78488 63.4905 7.30094 63.4862 5.51454C63.4819 3.71525 62.0121 2.2603 60.2012 2.26266Z" fill="white"/>
<path d="M47.0599 7.30517C46.9159 7.03177 46.7668 6.77898 46.646 6.51327C46.366 5.89692 46.5433 5.29273 47.0796 4.98627C47.6199 4.67757 48.2557 4.82163 48.5959 5.4174C49.4106 6.84442 50.2094 8.28192 50.9635 9.74161C51.3372 10.4648 50.9415 11.206 50.1283 11.3255C48.502 11.5646 46.869 11.7634 45.2346 11.9403C44.5988 12.0091 44.113 11.5786 44.0385 10.9957C43.9598 10.3803 44.2829 9.90322 44.9158 9.75016C45.2545 9.66828 45.6051 9.63577 46.1114 9.55544C45.7917 9.40175 45.6004 9.29249 45.3972 9.21463C37.2733 6.10186 29.3559 6.5443 21.6501 10.6011C21.4632 10.6995 21.2831 10.8112 21.0933 10.9034C20.4404 11.2205 19.8159 11.0606 19.5022 10.5024C19.1855 9.93902 19.3396 9.26715 20.001 8.95204C21.7985 8.09566 23.5755 7.1499 25.4544 6.51856C32.4985 4.15151 39.4965 4.42464 46.397 7.18323C46.5492 7.24403 46.7022 7.30346 46.858 7.35368C46.8933 7.36506 46.9419 7.33524 47.0599 7.30517Z" fill="white"/>
<path d="M24.082 60.3868C26.8404 61.7325 29.7191 62.4471 32.7136 62.6856C38.4254 63.1405 43.776 61.9419 48.7742 59.1448C49.5061 58.7352 50.1488 58.8683 50.4884 59.4594C50.838 60.0679 50.6005 60.7015 49.8275 61.1341C44.7402 63.9812 39.2886 65.286 33.4593 64.9948C30.0251 64.8233 26.722 64.0768 23.542 62.774C23.356 62.6978 23.1641 62.6359 22.8692 62.5291C23.0701 62.9222 23.2305 63.2008 23.3583 63.4935C23.6284 64.1116 23.427 64.7271 22.881 65.0052C22.3564 65.2723 21.7207 65.1255 21.4081 64.577C20.5941 63.1492 19.7937 61.7124 19.0398 60.2523C18.6547 59.5065 19.0786 58.7435 19.9185 58.6241C21.4765 58.4028 23.0393 58.2118 24.6039 58.0433C25.3835 57.9593 25.9066 58.37 25.976 59.0288C26.0438 59.6718 25.5814 60.1786 24.828 60.2856C24.5796 60.3209 24.3307 60.3531 24.082 60.3868Z" fill="white"/>
<path d="M8.53188 26.1944C8.19455 27.6952 7.76634 29.1821 7.5361 30.6991C6.67731 36.3574 7.44594 41.7959 9.909 46.9792C10.317 47.8379 10.1807 48.4966 9.5463 48.8022C8.89806 49.1145 8.28842 48.8171 7.88789 47.9639C4.5453 40.8443 4.05681 33.5187 6.31382 25.9969C6.37443 25.7949 6.43287 25.5922 6.48868 25.3889C6.49328 25.3721 6.46978 25.3477 6.42281 25.2539C6.17393 25.4108 5.9329 25.573 5.68225 25.7186C5.05752 26.0816 4.41576 25.9703 4.06427 25.4463C3.69959 24.9027 3.8218 24.2687 4.43022 23.8569C5.73398 22.9746 7.0454 22.1025 8.37549 21.2606C9.18675 20.7472 9.97661 21.0998 10.1873 22.0532C10.5217 23.5665 10.8344 25.0848 11.135 26.6052C11.2745 27.3112 10.9115 27.8737 10.2855 28.005C9.61082 28.1465 9.09445 27.7771 8.91407 27.0215C8.8509 26.7568 8.79272 26.491 8.73224 26.2257C8.66545 26.2153 8.59867 26.2048 8.53188 26.1944Z" fill="white"/>
<path d="M61.2993 43.9341C62.0494 41.7832 62.4678 39.7255 62.6616 37.622C63.1361 32.4737 62.2685 27.5633 60.0265 22.8986C59.6406 22.0959 59.8204 21.4616 60.4814 21.16C61.1208 20.8683 61.7006 21.1494 62.0875 21.9743C65.4127 29.0642 65.9345 36.3631 63.7062 43.8645C63.6395 44.0891 63.5709 44.3133 63.5104 44.5395C63.4998 44.5792 63.5251 44.6284 63.5435 44.7229C63.8532 44.5354 64.1382 44.3408 64.4424 44.1833C65.007 43.891 65.6057 44.0456 65.9281 44.5441C66.2415 45.0287 66.1563 45.7022 65.6484 46.0485C64.2708 46.9878 62.8823 47.9134 61.4651 48.7913C60.8119 49.196 60.0295 48.8614 59.854 48.107C59.482 46.5072 59.1557 44.8956 58.858 43.2801C58.7311 42.5914 59.1198 42.0699 59.7161 41.9543C60.3491 41.8316 60.8746 42.1952 61.0628 42.8977C61.1408 43.1886 61.1977 43.4852 61.2993 43.9341Z" fill="white"/>
<path d="M34.9656 49.2752C34.9186 49.2752 34.8716 49.2761 34.8246 49.2751C32.7136 49.2318 32.4264 49.6799 31.6407 47.2331C31.591 47.0782 31.4419 46.9065 31.2949 46.8396C30.613 46.5293 29.9204 46.2401 29.2195 45.9753C29.07 45.9188 28.8572 45.9591 28.6963 46.0176C28.3221 46.1537 27.9573 46.3184 27.597 46.4892C26.9887 46.7774 26.474 46.6776 26.003 46.1906C25.2841 45.4475 24.5546 44.7136 23.8086 43.9978C23.3003 43.5101 23.1287 42.9567 23.5089 42.3565C24.0959 41.4299 23.9614 40.6138 23.543 39.6202C23.1679 38.7294 22.7022 38.2196 21.8049 37.9417C20.8565 37.6479 20.7327 37.3885 20.7296 36.385C20.7266 35.3978 20.7463 34.4102 20.7233 33.4235C20.7076 32.7455 20.967 32.2382 21.6271 32.0961C22.7371 31.8571 23.2274 31.1536 23.6306 30.1342C23.971 29.2738 24.0415 28.6045 23.598 27.7861C23.0993 26.8657 23.2007 26.5941 23.9259 25.8654C24.6056 25.1824 25.3009 24.5143 25.965 23.8165C26.4491 23.3079 26.9997 23.1282 27.6056 23.4952C28.5285 24.0542 29.3389 23.9747 30.3434 23.5452C31.259 23.1538 31.8199 22.6858 32.0473 21.7455C32.2284 20.9969 32.7363 20.6883 33.5064 20.7109C34.5161 20.7404 35.5276 20.7333 36.5378 20.7132C37.244 20.6991 37.7545 20.9804 37.9042 21.6709C38.132 22.7217 38.8022 23.1826 39.7595 23.5945C40.6978 23.9983 41.456 24.033 42.3052 23.5252C42.9327 23.15 43.5031 23.273 44.0153 23.8093C44.7131 24.54 45.4304 25.2529 46.158 25.954C46.6588 26.4366 46.8593 26.9867 46.48 27.5936C45.9044 28.5148 46.0081 29.3326 46.4246 30.3278C46.8065 31.2404 47.2745 31.811 48.2178 32.0387C48.9964 32.2268 49.3045 32.7547 49.2737 33.5549C49.2358 34.5407 49.2454 35.5294 49.2709 36.516C49.2893 37.2249 49.0093 37.7385 48.3256 37.8926C47.2524 38.1345 46.7861 38.8185 46.365 39.8008C45.9692 40.7241 45.9407 41.4488 46.4378 42.2725C46.8323 42.926 46.7033 43.5077 46.1391 44.0378C45.403 44.7295 44.6935 45.4507 43.9935 46.1793C43.5252 46.6667 42.9754 46.8422 42.4116 46.4818C41.4302 45.8543 40.5591 46.0275 39.5431 46.4743C38.7469 46.8244 38.2459 47.2197 37.9846 48.0591C37.6417 49.1608 37.3967 49.2733 36.2348 49.2751C35.8118 49.2758 35.3886 49.2752 34.9656 49.2752ZM47.0074 36.0647C47.0074 35.6501 46.9666 35.3391 47.0153 35.0427C47.1469 34.2407 46.8628 33.7761 46.0437 33.6046C45.3076 33.4504 44.9199 32.9606 44.7251 32.216C44.5429 31.5192 44.2805 30.8141 43.9043 30.2047C43.4247 29.4278 43.4014 28.7328 43.853 27.9673C43.9913 27.7328 44.2046 27.3331 44.113 27.2094C43.7539 26.7246 43.3219 26.2724 42.8384 25.9144C42.6932 25.8069 42.2638 25.9939 42.014 26.134C41.2413 26.5675 40.5416 26.558 39.7718 26.0673C39.2267 25.7199 38.5923 25.4529 37.9615 25.3137C37.0476 25.112 36.4786 24.6315 36.2963 23.7327C36.1575 23.0479 35.7425 22.9253 35.1244 22.9632C34.5015 23.0014 33.8471 22.8284 33.6824 23.7466C33.5197 24.6537 32.916 25.1033 32.0117 25.319C31.3158 25.485 30.6413 25.8157 30.0142 26.1732C29.3965 26.5253 28.8322 26.5744 28.2205 26.2364C28.1386 26.1911 28.0397 26.1721 27.9659 26.1175C27.4141 25.709 27.0244 25.9014 26.5953 26.371C25.8226 27.2164 25.7678 27.2041 26.2633 28.2441C26.5691 28.8858 26.513 29.4261 26.1624 30.0349C25.8135 30.6405 25.4797 31.2924 25.331 31.9664C25.1235 32.9062 24.656 33.5127 23.7232 33.6882C22.6832 33.8838 23.0812 34.6766 22.9778 35.2857C22.8664 35.9414 23.2382 36.1646 23.7578 36.2926C24.6185 36.5045 25.1106 37.0124 25.3012 37.9092C25.4307 38.5188 25.668 39.1472 26.0156 39.6595C26.5966 40.5157 26.5695 41.3018 26.073 42.1503C25.9599 42.3438 25.7993 42.686 25.8788 42.7856C26.257 43.2596 26.6708 43.7293 27.1601 44.0761C27.3163 44.1868 27.7683 43.9595 28.0424 43.8093C28.7726 43.4092 29.4282 43.4228 30.1567 43.8781C30.7255 44.2335 31.3787 44.5113 32.0316 44.6607C32.9428 44.8692 33.5294 45.349 33.6877 46.2484C33.8508 47.1752 34.5083 46.9872 35.1266 47.0295C35.7446 47.0719 36.1341 46.9419 36.2968 46.2652C36.4571 45.5984 36.7445 45.02 37.5289 44.7795C38.42 44.5062 39.2518 44.0426 40.1388 43.7514C40.5696 43.61 41.1173 43.5286 41.5258 43.6697C42.8415 44.1244 42.826 44.1692 43.7939 43.1808C43.8433 43.1304 43.9239 43.088 43.9378 43.0295C43.9852 42.8297 44.1088 42.5621 44.0267 42.4311C43.3475 41.3472 43.3882 40.321 44.1619 39.3079C44.2587 39.1811 44.3215 39.0155 44.3589 38.858C44.7022 37.4136 45.2629 36.1705 47.0074 36.0647Z" fill="white"/>
<path d="M34.9842 27.6704C39.0448 27.6676 42.3493 30.9701 42.3321 35.0139C42.3152 39.0202 39.0072 42.3204 35.0011 42.3275C30.9598 42.3347 27.6559 39.0157 27.668 34.961C27.6801 30.9256 30.9439 27.6732 34.9842 27.6704ZM34.9774 29.928C32.1702 29.9337 29.9283 32.1778 29.9258 34.9844C29.9234 37.7726 32.1839 40.0508 34.9719 40.0699C37.758 40.0889 40.0952 37.7464 40.075 34.9552C40.0547 32.1681 37.7775 29.9223 34.9774 29.928Z" fill="white"/>
</svg>
