<svg width="71" height="70" viewBox="0 0 71 70" fill="none" xmlns="http://www.w3.org/2000/svg">
<path d="M71.0094 36.5089C70.8045 37.5991 70.6864 38.7143 70.3809 39.7755C67.9234 48.3128 62.4351 53.6935 53.597 55.1524C47.1332 56.2194 41.3922 54.3036 36.515 49.896C36.3499 49.7468 36.1817 49.601 35.9788 49.4216C32.2874 53.0041 27.8973 54.9849 22.7675 55.3888V60.3784C23.6018 60.3784 24.417 60.3782 25.2322 60.3784C25.7335 60.3786 26.2351 60.3688 26.736 60.382C27.6186 60.4052 28.1067 60.8372 28.0948 61.5654C28.083 62.2872 27.5868 62.7067 26.6946 62.714C25.4001 62.7246 24.1055 62.7167 22.7265 62.7167C22.7265 63.3823 22.7265 63.9901 22.7265 64.5978C22.7264 65.942 22.7335 67.2863 22.7235 68.6304C22.7172 69.4727 22.2322 70.0148 21.5305 69.9995C20.8477 69.9845 20.4024 69.4681 20.3987 68.6509C20.391 66.9422 20.3961 65.2335 20.396 63.5247C20.396 63.2808 20.396 63.0369 20.396 62.717C19.1844 62.717 18.0509 62.7178 16.9174 62.7165C16.6441 62.7162 16.3683 62.7313 16.098 62.7008C15.4306 62.6256 14.9871 62.1408 14.9962 61.5264C15.0054 60.9117 15.4555 60.4232 16.1352 60.4007C17.2505 60.3638 18.3677 60.3827 19.484 60.3785C19.7538 60.3775 20.0235 60.3784 20.3599 60.3784C20.3737 60.0808 20.397 59.8409 20.394 59.6015C20.3716 57.8269 20.3421 56.0523 20.3187 54.2778C20.309 53.546 20.8405 53.0845 21.755 53.0749C23.919 53.0523 26.0059 52.6512 28.0203 51.8619C30.6312 50.8389 32.8552 49.2539 34.798 47.2471C35.7647 46.2486 36.2429 46.301 37.2206 47.2892C42.4369 52.5612 48.6947 54.4099 55.7818 52.2393C62.8888 50.0626 67.1627 45.0476 68.4105 37.7037C69.7171 30.0136 65.7504 22.3831 58.8103 18.7822C58.5883 18.6671 58.3539 18.5667 58.154 18.4201C57.6871 18.0778 57.5384 17.4461 57.8157 16.9569C58.1078 16.4414 58.5622 16.2342 59.1436 16.3901C59.3601 16.4482 59.5679 16.5528 59.7669 16.6599C66.1967 20.1212 69.9308 25.4512 70.8879 32.7057C70.9112 32.8818 70.9682 33.0535 71.0095 33.2272L71.0094 36.5089Z" fill="white"/>
<path d="M50.9068 2.4982e-05C51.1042 0.150517 51.3214 0.281073 51.4959 0.454523C53.5486 2.49436 55.6 4.53556 57.6397 6.58841C58.2081 7.1605 58.2225 7.8577 57.7275 8.34365C57.2577 8.80474 56.6074 8.77913 56.0183 8.26086C55.7793 8.05053 55.5612 7.81615 55.3366 7.58964C54.3421 6.58639 53.3499 5.58084 52.3536 4.57926C52.1981 4.42292 52.0262 4.28289 51.7376 4.02371C51.7376 4.40281 51.7376 4.63946 51.7376 4.87612C51.7376 8.33945 51.739 11.8028 51.7366 15.2661C51.7359 16.3593 51.3578 16.7755 50.2766 16.7872C46.9633 16.8231 43.903 17.7204 41.0654 19.4174C40.3134 19.8672 39.649 19.7393 39.2882 19.113C38.9207 18.4752 39.1371 17.8654 39.8922 17.4075C42.7894 15.6503 45.9411 14.705 49.3591 14.474V4.18746L49.2258 4.0659C48.4817 4.84771 47.7439 5.6356 46.9916 6.40941C46.3722 7.04648 45.7487 7.6807 45.1027 8.29039C44.5615 8.80114 43.8527 8.7899 43.3949 8.3077C42.9557 7.84513 42.9556 7.16497 43.4609 6.65476C45.5453 4.55008 47.6449 2.46033 49.7432 0.369384C49.885 0.228061 50.0623 0.122312 50.2231 0C50.451 2.4982e-05 50.6789 2.4982e-05 50.9068 2.4982e-05Z" fill="white"/>
<path d="M20.6836 14.4177C27.4972 14.5558 32.5588 16.7732 36.6606 21.1686C37.0703 21.6077 37.2832 22.0781 37.043 22.6532C36.7161 23.4359 35.7441 23.5199 35.0514 22.8829C34.0141 21.9292 33.0297 20.891 31.8838 20.0866C20.7752 12.2883 5.35101 19.0348 3.48318 32.4817C2.313 40.906 7.21425 49.0472 15.2169 51.9719C15.452 52.0578 15.6922 52.1321 15.921 52.2324C16.554 52.5101 16.7968 53.043 16.5918 53.6774C16.3912 54.2981 15.8589 54.6205 15.1897 54.4103C14.3892 54.1588 13.5983 53.8563 12.8369 53.5032C4.95929 49.85 0.463279 41.8403 1.03734 33.5427C1.66302 24.499 8.02072 17.2403 16.3622 15.1106C18.0257 14.6859 19.7655 14.5598 20.6836 14.4177Z" fill="white"/>
<path d="M50.7293 48.8514C46.8132 48.8277 43.7206 47.5833 41.0822 45.1868C40.4058 44.5725 40.2835 43.8768 40.7401 43.341C41.2276 42.769 41.9284 42.793 42.6453 43.4552C48.2737 48.6545 56.7501 46.8147 60.381 41.0325C64.7055 34.1456 60.4811 24.7971 52.4512 23.5232C48.7308 22.933 45.4629 23.8732 42.6575 26.3994C41.903 27.0788 41.1849 27.1018 40.7053 26.4811C40.3144 25.9751 40.4044 25.3094 40.9727 24.7802C43.5622 22.3687 46.6165 21.0764 50.1678 21.0199C57.1548 20.9088 63.0777 25.8118 64.263 32.6767C65.5701 40.2468 60.1899 47.6091 52.5657 48.6719C51.8457 48.7723 51.1175 48.8143 50.7293 48.8514Z" fill="white"/>
<path d="M21.223 21.0112C25.1285 21.0307 28.2068 22.2549 30.8386 24.62C31.5681 25.2756 31.6694 25.9565 31.146 26.5099C30.6547 27.0293 29.9737 26.9953 29.2796 26.358C23.7426 21.2741 15.2659 22.9854 11.5948 28.8244C7.23678 35.7561 11.5588 45.1619 19.6628 46.3575C23.3122 46.8959 26.513 45.9662 29.2714 43.5103C29.5054 43.302 29.7669 43.0788 30.0552 42.9872C30.5872 42.8181 31.0582 43.0073 31.3428 43.4973C31.6572 44.0383 31.5569 44.5559 31.1115 44.9856C29.7511 46.2983 28.1932 47.3132 26.4205 47.972C18.2252 51.0176 9.23804 45.8606 7.73025 37.2564C6.39456 29.6345 11.74 22.2729 19.4032 21.1926C20.123 21.0911 20.8509 21.0475 21.223 21.0112Z" fill="white"/>
<path d="M35.967 39.8075C34.1694 39.8075 32.3718 39.8114 30.5742 39.8059C29.6449 39.8031 29.1382 39.3735 29.1526 38.6235C29.1664 37.9102 29.679 37.48 30.5567 37.4789C34.1747 37.4741 37.7926 37.4743 41.4106 37.4787C42.3135 37.4798 42.8525 37.9423 42.8373 38.6741C42.8224 39.3877 42.3164 39.803 41.4281 39.8058C39.6077 39.8115 37.7874 39.8075 35.967 39.8075Z" fill="white"/>
<path d="M36.0499 30.2021C37.8475 30.2021 39.6451 30.198 41.4427 30.2038C42.3258 30.2067 42.8313 30.6305 42.8374 31.3479C42.8435 32.0596 42.319 32.5283 41.4643 32.5298C37.8236 32.5364 34.1828 32.5359 30.5421 32.5303C29.6742 32.5289 29.1582 32.083 29.1524 31.3691C29.1464 30.6405 29.6423 30.2074 30.5205 30.2041C32.3636 30.1973 34.2068 30.2021 36.0499 30.2021Z" fill="white"/>
</svg>
