<svg width="16" height="17" viewBox="0 0 16 17" fill="none" xmlns="http://www.w3.org/2000/svg">
<path fill-rule="evenodd" clip-rule="evenodd" d="M3.7546 6.18785C3.40236 5.83561 3.40236 5.26451 3.7546 4.91227L7.36247 1.3044C7.71472 0.952155 8.28581 0.952155 8.63805 1.3044L12.2459 4.91227C12.5982 5.26451 12.5982 5.83561 12.2459 6.18785C11.8937 6.54009 11.3226 6.54009 10.9703 6.18785L8.90223 4.11973L8.90223 10.9619C8.90223 11.46 8.49841 11.8638 8.00026 11.8638C7.50212 11.8638 7.09829 11.46 7.09829 10.9619L7.09829 4.11973L5.03018 6.18785C4.67794 6.54009 4.10684 6.54009 3.7546 6.18785Z" fill="white"/>
<path d="M1.33203 15.5709H14.6654" stroke="white" stroke-width="1.7" stroke-linecap="round" stroke-linejoin="round"/>
</svg>
