<svg width="20" height="21" viewBox="0 0 20 21" fill="none" xmlns="http://www.w3.org/2000/svg">
<circle cx="10" cy="10.8682" r="10" fill="white"/>
<path d="M7.74229 9.57623H6.02148V15.0638H7.74229V9.57623Z" fill="#191919"/>
<path d="M12.3973 9.45728C12.3339 9.44935 12.2665 9.44538 12.1991 9.44142C11.2356 9.40177 10.6924 9.97273 10.5021 10.2186C10.4505 10.286 10.4267 10.3256 10.4267 10.3256V9.59209H8.78125V15.0796H10.4267H10.5021C10.5021 14.5206 10.5021 13.9655 10.5021 13.4064C10.5021 13.1051 10.5021 12.8037 10.5021 12.5024C10.5021 12.1297 10.4743 11.7332 10.6607 11.3922C10.8193 11.1067 11.1047 10.964 11.4259 10.964C12.3775 10.964 12.3973 11.8244 12.3973 11.9037C12.3973 11.9076 12.3973 11.9116 12.3973 11.9116V15.1034H14.1181V11.523C14.1181 10.2979 13.4956 9.57623 12.3973 9.45728Z" fill="#191919"/>
<path d="M6.88199 8.86652C7.43382 8.86652 7.88117 8.41918 7.88117 7.86734C7.88117 7.31551 7.43382 6.86816 6.88199 6.86816C6.33016 6.86816 5.88281 7.31551 5.88281 7.86734C5.88281 8.41918 6.33016 8.86652 6.88199 8.86652Z" fill="#191919"/>
</svg>
