<svg width="176" height="50" viewBox="0 0 176 50" fill="none" xmlns="http://www.w3.org/2000/svg">
<path d="M25.0246 0C11.225 0 0 11.2143 0 24.9989C0 38.7857 11.225 50 25.0246 50C38.8242 50 50.0492 38.7857 50.0492 24.9989C50.0492 11.2143 38.8244 0 25.0246 0ZM25.7758 34.2036C25.5406 34.7168 25.26 35.1755 24.9251 35.5961L16.2208 16.6937C16.0421 16.305 15.9041 15.9049 15.7977 15.4551C18.2729 15.4776 23.3933 15.473 33.9959 15.4596L34.3286 15.4618L25.7758 34.2036ZM19.3138 4.5256C17.083 5.56304 13.8745 7.56592 12.4853 10.8979C11.5214 13.2126 11.6322 15.6901 12.8155 18.2626L21.6556 37.452C18.7594 37.834 15.533 36.1589 14.895 35.804C10.114 33.1434 6.56616 28.6812 4.87823 26.2579C4.33973 25.4826 3.75154 24.1556 3.86237 22.9599C4.70185 14.1145 10.9737 6.84483 19.3138 4.5256ZM13.0712 39.0795C14.5533 39.9045 17.5263 41.288 20.755 41.288C21.8366 41.288 22.8683 41.1298 23.8232 40.8178C26.2081 40.0333 28.0135 38.3312 29.188 35.7565L38.0325 16.3705C38.3266 16.5649 38.5642 16.7594 38.7678 16.9763C40.8336 19.1714 40.829 23.1182 40.7317 24.7117C40.3381 31.118 34.2244 40.1374 30.6156 44.9455C30.3689 45.2711 29.7332 45.7096 29.2151 45.818C27.7918 46.1073 26.3822 46.2543 25.0246 46.2543C16.2706 46.2543 8.31294 40.7229 5.17691 32.6326C7.66589 35.3813 10.3177 37.5469 13.0712 39.0795ZM44.4764 24.9423C44.6054 22.8627 44.5714 17.6725 41.4942 14.4108C39.8108 12.6204 37.5414 11.7139 34.7471 11.7139C30.9573 11.7185 20.9564 11.7185 16.2773 11.7139C17.7459 9.17762 21.0831 7.79425 22.1148 7.41663C25.2327 6.27745 28.9344 5.76198 33.1474 5.90211C34.4801 5.94278 35.6318 6.60964 35.6815 6.63903C42.2297 10.4436 46.2977 17.4782 46.2977 24.9989C46.2977 32.038 42.7273 38.6635 36.8944 42.6036C40.3245 37.4587 44.1301 30.5755 44.4764 24.9423Z" fill="white"/>
<path d="M86.0567 3.9585C79.9757 3.9585 75.8359 8.77863 75.8359 14.2832V14.3404C75.8359 19.845 79.9184 24.608 85.9994 24.608C92.0805 24.608 96.2195 19.7882 96.2195 14.2832V14.2264C96.2195 8.72142 92.1372 3.9585 86.0567 3.9585ZM93.8785 14.3404C93.8785 18.8752 90.6241 22.526 86.0567 22.526C81.4888 22.526 78.1771 18.8185 78.1771 14.2832V14.2264C78.1771 9.6916 81.4315 6.04077 85.9994 6.04077C90.5674 6.04077 93.8785 9.74846 93.8785 14.2832V14.3404Z" fill="white"/>
<path d="M116.803 10.2904V10.2337C116.803 8.66478 116.231 7.26716 115.261 6.2975C114.005 5.04246 112.035 4.30078 109.579 4.30078H100.986V24.266C100.986 24.266 101.96 24.2596 102.621 23.7466C103.24 23.2805 103.242 22.7947 103.242 22.7053V22.6858L103.242 22.6854V16.5082H108.951L114.747 24.266H117.516L111.378 16.1087C114.518 15.5385 116.803 13.599 116.803 10.2904ZM103.242 14.4831V6.38323H109.408C112.634 6.38323 114.518 7.86642 114.518 10.3189V10.3761C114.518 12.943 112.377 14.4831 109.38 14.4831H103.242Z" fill="white"/>
<path d="M119.998 6.38304H126.707V24.2658C126.707 24.2658 127.693 24.2594 128.363 23.7399C128.989 23.2676 128.991 22.7757 128.991 22.6852V6.38304H135.7V4.30078H119.998L119.998 6.38304Z" fill="white"/>
<path d="M142.18 15.2246H153.085V13.1712H142.18V6.35435H154.369V4.30078H139.924V24.2658H152.416C152.585 24.2658 153.514 24.1494 153.953 23.616C154.511 22.9377 154.512 22.2124 154.512 22.2124H142.18V15.2246Z" fill="white"/>
<path d="M167.929 14.0551L175.323 4.30078H172.697L166.616 12.4579L160.478 4.30078H157.823L165.217 14.0835L157.537 24.2658C157.537 24.2658 158.779 24.3182 159.749 23.9116C160.716 23.5229 161.309 22.6852 161.309 22.6852L166.53 15.6807L172.925 24.2658H175.609L174.415 22.6852L167.929 14.0551Z" fill="white"/>
<path d="M54.7676 4.30078L63.3605 24.4087C63.3605 24.4087 64.3013 24.3716 64.9876 23.9378C65.6705 23.5063 66.0132 22.8518 66.0986 22.6784C66.1841 22.5048 73.9522 4.30078 73.9522 4.30078H54.7676ZM64.388 21.4992L58.1401 6.38271H70.6613L64.388 21.4992Z" fill="white"/>
<path d="M99.9353 43.9605H89.9737V28.123H87.9766V45.8047H98.0793C98.2284 45.8047 99.0511 45.7016 99.44 45.2291C99.9341 44.6286 99.9353 43.986 99.9353 43.986H99.9071L99.9353 43.9605Z" fill="white"/>
<path d="M54.7676 36.9861V36.9358C54.7676 31.95 58.498 27.8203 63.69 27.8203C66.8913 27.8203 68.8067 28.9535 70.5709 30.6154L69.2098 32.0759C67.7228 30.6657 66.0592 29.6586 63.665 29.6586C59.7582 29.6586 56.8343 32.8313 56.8343 36.8854V36.9358C56.8343 41.0151 59.7834 44.213 63.665 44.213C65.4312 44.213 66.7512 43.7123 67.997 42.8215C69.2463 41.9281 70.6717 42.9541 70.6717 42.9541C70.3538 43.2759 70.0308 43.579 69.6972 43.8604C68.0999 45.2069 66.2624 46.0513 63.6144 46.0513C58.523 46.0513 54.7676 42.0474 54.7676 36.9861Z" fill="white"/>
<path d="M72.0547 39.3028V39.2523C72.0547 35.576 74.928 32.4536 78.8598 32.4536C82.7666 32.4536 85.6398 35.5256 85.6398 39.2021V39.2523C85.6398 42.9289 82.7414 46.0512 78.8096 46.0512C74.9028 46.0512 72.0547 42.9794 72.0547 39.3028ZM83.6488 39.3028V39.2523C83.6488 36.4574 81.5567 34.166 78.8096 34.166C75.9867 34.166 74.0459 36.4574 74.0459 39.2021V39.2523C74.0459 42.0474 76.1127 44.3138 78.8598 44.3138C81.6829 44.3138 83.6488 42.0474 83.6488 39.3028Z" fill="white"/>
<path d="M123.415 32.4534C121.021 32.4534 119.483 33.7878 118.425 35.3491V27.3667H116.484V42.1593H116.482V45.7682C116.482 45.7682 117.322 45.7628 117.892 45.3207C118.425 44.9188 118.426 44.5002 118.426 44.4231V43.2578C119.434 44.7176 120.997 46.0256 123.415 46.0256C126.566 46.0256 129.641 43.5078 129.641 39.2519V39.2017C129.641 34.921 126.541 32.4534 123.415 32.4534ZM127.65 39.2773C127.65 42.4249 125.583 44.2884 123.062 44.2884C120.643 44.2884 118.349 42.2737 118.349 39.2519V39.2017C118.349 36.2304 120.643 34.1908 123.062 34.1908C125.532 34.1908 127.65 36.1549 127.65 39.2271V39.2773Z" fill="white"/>
<path d="M111.718 33.9643C110.786 33.0327 109.349 32.5288 107.509 32.5288C105.594 32.5288 104.207 32.9821 102.771 33.6368L103.35 35.2234C104.56 34.6693 105.77 34.2916 107.308 34.2916C109.752 34.2916 111.164 35.5003 111.164 37.817V38.2198C110.004 37.8924 108.845 37.6658 107.182 37.6658C103.88 37.6658 101.611 39.1265 101.611 41.9216V41.9717C101.611 44.6409 104.031 46.0259 106.476 46.0259C108.77 46.0259 110.257 44.9682 111.164 43.81V45.749L111.165 45.7476C111.173 45.7476 111.994 45.7402 112.553 45.3067C113.078 44.9106 113.08 44.4982 113.08 44.4223V37.7917C113.08 36.1298 112.626 34.8707 111.718 33.9643ZM106.854 44.4647C105.09 44.4647 103.577 43.5079 103.577 41.871V41.8209C103.577 40.2595 104.964 39.2018 107.383 39.2018C108.971 39.2018 110.231 39.4787 111.189 39.7558V40.9646C111.189 43.0292 109.248 44.4647 106.854 44.4647Z" fill="white"/>
</svg>
