<svg width="94" height="94" viewBox="0 0 94 94" fill="none" xmlns="http://www.w3.org/2000/svg">
<path d="M88.5367 52.4453C88.5367 52.4453 88.386 52.893 88.1035 53.7322C88.065 53.8417 88.037 53.9403 87.9849 54.0738C87.9341 54.2059 87.8814 54.3443 87.8247 54.4894C87.7125 54.7789 87.5892 55.095 87.4562 55.4367C87.3273 55.788 87.1633 56.1153 87.0008 56.4868C86.8288 56.851 86.6716 57.2493 86.4564 57.6474C85.6681 59.2736 84.5529 61.1741 83.0474 63.1801C81.5345 65.1789 79.595 67.2558 77.2208 69.1975C76.0165 70.1476 74.7251 71.0863 73.3102 71.9327C71.8945 72.7732 70.3823 73.5565 68.7723 74.2304C65.5478 75.5544 61.9542 76.4948 58.1786 76.7553C56.2941 76.894 54.3694 76.879 52.4406 76.6994C50.5126 76.5058 48.5832 76.1453 46.6885 75.623L45.9783 75.4236L45.8007 75.3738L45.7565 75.3616L45.6696 75.3358L45.5868 75.3074L45.255 75.1953C45.0305 75.1181 44.8191 75.0518 44.5842 74.9662L43.8484 74.6798C43.3497 74.4932 42.9121 74.2706 42.4427 74.0638C41.9938 73.8265 41.5306 73.6156 41.0956 73.3505C40.2041 72.8614 39.3683 72.2772 38.5498 71.6756C37.7492 71.0504 36.9716 70.3937 36.2584 69.6722C33.3891 66.8066 31.3178 63.1942 30.3249 59.3788C29.8186 57.4746 29.579 55.5231 29.5781 53.6042C29.5945 51.6846 29.8319 49.7942 30.3094 48.0041L30.4964 47.3367L30.5431 47.1707L30.5663 47.0876C30.5991 46.9818 30.5836 47.0362 30.5946 47.0024L30.6089 46.9636L30.7216 46.6539L30.9472 46.0366C31.0204 45.8321 31.0915 45.6285 31.2048 45.4074C31.4138 44.9803 31.605 44.5388 31.8314 44.1361C32.0707 43.7462 32.3091 43.3587 32.5458 42.9735C33.5727 41.4834 34.8439 40.2276 36.2351 39.2434C37.6268 38.2578 39.1383 37.5433 40.6618 37.0837C42.1895 36.6243 43.7342 36.4735 45.1956 36.4992C45.5619 36.5191 45.9244 36.5279 46.2805 36.5566C46.6345 36.609 46.9845 36.6612 47.3308 36.7125C47.6784 36.7491 48.0102 36.852 48.341 36.9321C48.5058 36.9739 48.6698 37.0159 48.8327 37.0571L49.0758 37.1191C49.195 37.149 49.2401 37.1755 49.3256 37.2033C49.6302 37.3232 49.9256 37.404 50.2268 37.551C50.523 37.7 50.8308 37.8249 51.1015 37.99C51.3687 38.1597 51.6435 38.3088 51.8919 38.4892C52.1348 38.6765 52.3808 38.8523 52.6082 39.0417C53.5185 39.8066 54.2016 40.6984 54.7106 41.5764C55.2149 42.4586 55.5636 43.3334 55.7434 44.1529C56.1448 45.7869 56.0377 47.1268 55.8758 47.9949C55.8508 48.2164 55.8027 48.4063 55.7581 48.5704C55.7164 48.734 55.6813 48.8718 55.6531 48.9831C55.5999 49.2058 55.5606 49.3173 55.5608 49.3172C55.5606 49.3173 55.5939 49.2038 55.6361 48.9788C55.6584 48.8661 55.6864 48.7272 55.7196 48.562C55.7555 48.3976 55.7933 48.2059 55.8071 47.9852C55.9242 47.1175 55.9591 45.7893 55.4865 44.2218C55.2722 43.4356 54.8901 42.6077 54.3642 41.7886C53.8345 40.9731 53.1417 40.1603 52.2485 39.4856C52.0252 39.318 51.785 39.1656 51.55 39.0018C51.3097 38.845 51.0447 38.7195 50.7885 38.5738C50.5298 38.4325 50.2525 38.34 49.9819 38.2173C49.7126 38.0982 49.3851 38.0232 49.0835 37.9224C47.8903 37.641 46.5605 37.3953 45.1938 37.4662C43.8288 37.5128 42.4081 37.7252 41.0263 38.2198C39.6482 38.7146 38.3052 39.4385 37.0939 40.3928C35.8832 41.3461 34.8053 42.5289 33.9632 43.8953C33.7715 44.2467 33.5786 44.6 33.3851 44.9553C33.2082 45.3124 33.0765 45.6775 32.9153 46.0368C32.8328 46.2062 32.7699 46.4176 32.7066 46.6286L32.5132 47.2569L32.4159 47.572L32.4035 47.6115C32.4064 47.6038 32.3809 47.6842 32.4062 47.6047L32.3888 47.6813L32.3542 47.8356L32.2146 48.4536C31.8625 50.1086 31.7387 51.8312 31.8114 53.5554C31.9012 55.2791 32.2049 57.0103 32.7419 58.677C33.7957 62.0176 35.7878 65.0856 38.3908 67.4308C39.0376 68.023 39.7374 68.5513 40.4488 69.053C41.1788 69.5298 41.915 69.9954 42.6965 70.3706C43.0765 70.5784 43.4828 70.7336 43.8721 70.9182C44.2711 71.0674 44.6815 71.2513 45.0681 71.3702L45.6507 71.5658C45.8584 71.6315 46.0958 71.6926 46.3167 71.7566L46.6536 71.8511L46.738 71.8749C46.7912 71.8904 46.7125 71.8667 46.7352 71.8724L46.7755 71.8811L46.9367 71.9181L47.5797 72.0624C49.2934 72.441 51.0191 72.672 52.7268 72.7557C54.4364 72.8272 56.125 72.7519 57.7655 72.546C61.0526 72.1512 64.1244 71.1676 66.8425 69.8874C68.1981 69.2353 69.4607 68.4953 70.6343 67.7153C71.8063 66.9314 72.8628 66.0725 73.843 65.2178C75.7706 63.4641 77.3103 61.635 78.4893 59.8997C79.6605 58.156 80.5067 56.5307 81.0888 55.1483C81.2519 54.8115 81.3619 54.4713 81.489 54.163C81.6057 53.8542 81.7379 53.5565 81.8137 53.2979C81.901 53.0362 81.982 52.7943 82.0556 52.5729C82.0929 52.4617 82.1285 52.3564 82.1623 52.2567C82.1964 52.1582 82.228 52.03 82.2578 51.928C82.4974 51.0752 82.6255 50.62 82.6255 50.62L88.5367 52.4453Z" fill="#FA1B38"/>
<path d="M80.2209 21.478C80.2209 21.478 80.4308 21.9018 80.8244 22.6954C80.8743 22.799 80.9242 22.8899 80.982 23.0203C81.0398 23.1489 81.0996 23.2847 81.1623 23.4272C81.2879 23.7118 81.4241 24.0224 81.5724 24.3578C81.7286 24.6973 81.8449 25.044 81.9922 25.4227C82.1284 25.8014 82.299 26.1943 82.4289 26.628C83.0197 28.335 83.5758 30.4679 83.93 32.9508C84.2735 35.4343 84.3707 38.2742 84.0653 41.3263C83.8849 42.849 83.6359 44.4257 83.2335 46.0247C82.8266 47.6204 82.3111 49.2438 81.6496 50.8588C80.3055 54.0751 78.4298 57.2813 75.9439 60.1354C74.7096 61.5652 73.3386 62.9158 71.8469 64.1526C70.3475 65.3793 68.7279 66.4878 67.0194 67.4585L66.3756 67.8202L66.215 67.9099L66.1744 67.9325L66.0952 67.9751L66.0166 68.0146L65.703 68.1694C65.4892 68.2738 65.293 68.3769 65.0662 68.4823L64.3437 68.8005C63.8586 69.021 63.392 69.1727 62.9142 69.3583C62.4282 69.5074 61.9525 69.686 61.4577 69.8066C60.4811 70.0918 59.4764 70.2688 58.4731 70.4227C57.464 70.5463 56.4505 70.6322 55.4358 70.6262C51.3803 70.6285 47.3613 69.5388 43.9614 67.5427C42.2572 66.555 40.7072 65.344 39.3497 63.9884C38.0045 62.6191 36.8359 61.1147 35.9075 59.5116L35.568 58.907L35.4833 58.7563L35.4412 58.6818C35.3894 58.5837 35.4167 58.6325 35.4008 58.6015L35.3836 58.5642L35.2445 58.2648L34.9671 57.6687C34.8742 57.4725 34.7804 57.2776 34.7047 57.0424C34.5501 56.5922 34.3733 56.1442 34.2484 55.7003C34.1424 55.255 34.0366 54.8126 33.9316 54.3731C33.6037 52.5926 33.615 50.8063 33.9026 49.1263C34.1897 47.445 34.7535 45.8712 35.5063 44.4692C36.2616 43.0641 37.2469 41.8653 38.2982 40.8498C38.5712 40.6049 38.8337 40.3547 39.1064 40.1235C39.3936 39.9101 39.678 39.6994 39.9588 39.4908C40.2313 39.2707 40.538 39.109 40.8289 38.9321C40.975 38.8452 41.1202 38.7584 41.2647 38.6726L41.4806 38.5444C41.5858 38.4814 41.6365 38.4681 41.7169 38.4274C42.0166 38.2967 42.283 38.145 42.6 38.036C42.9148 37.9319 43.2204 37.8023 43.5287 37.7279C43.8379 37.659 44.1377 37.5704 44.4403 37.5222C44.7451 37.4833 45.0431 37.4331 45.338 37.4065C46.5221 37.3036 47.6361 37.4509 48.6165 37.7122C49.5971 37.9794 50.4625 38.3512 51.169 38.8036C52.6079 39.6754 53.4799 40.6984 53.9793 41.4268C54.1176 41.6007 54.2182 41.7697 54.3025 41.9166C54.3891 42.0622 54.4616 42.1843 54.5202 42.2827C54.6398 42.4782 54.6915 42.5844 54.6915 42.5844C54.6915 42.5844 54.6345 42.4809 54.505 42.292C54.4416 42.1968 54.3631 42.0787 54.2693 41.9383C54.1783 41.7964 54.0702 41.6341 53.9233 41.4684C53.3923 40.7719 52.4779 39.8083 51.0362 39.0337C50.3282 38.6298 49.4729 38.3145 48.5219 38.1069C47.5704 37.9048 46.506 37.8203 45.3975 37.9744C45.1211 38.0138 44.8438 38.076 44.5611 38.1258C44.2803 38.1853 44.0044 38.2839 43.7199 38.3617C43.4372 38.4449 43.1758 38.5759 42.8976 38.68C42.6234 38.7864 42.3386 38.9651 42.0541 39.1069C41.0114 39.7518 39.8971 40.5184 38.9809 41.5344C38.0487 42.533 37.1941 43.6877 36.5672 45.0144C35.9423 46.339 35.5042 47.8002 35.3227 49.3321C35.1407 50.862 35.2145 52.4604 35.5855 54.0224C35.6985 54.4058 35.8121 54.7926 35.9261 55.18C36.0541 55.5584 36.2186 55.9088 36.3593 56.2772C36.4202 56.4554 36.5255 56.6501 36.63 56.8437L36.9372 57.4244L37.0914 57.7159L37.1107 57.7528C37.1074 57.7461 37.1457 57.8195 37.1077 57.7461L37.1499 57.8127L37.2344 57.946L37.5725 58.4817C38.4937 59.9015 39.6239 61.2062 40.8945 62.3743C42.1772 63.53 43.6163 64.5389 45.174 65.3379C48.2818 66.9552 51.8598 67.7152 55.3588 67.5333C56.2347 67.4947 57.1028 67.3733 57.9612 67.2252C58.8142 67.0456 59.664 66.8546 60.4824 66.5674C60.8979 66.4455 61.2947 66.2679 61.7005 66.1243C62.088 65.9465 62.508 65.7865 62.8656 65.5978L63.4161 65.3244C63.6086 65.2225 63.8208 65.0986 64.0221 64.9879L64.3271 64.8166L64.4038 64.7733C64.4524 64.7468 64.3797 64.7853 64.4001 64.7733L64.4343 64.7517L64.5737 64.6627L65.131 64.3105C66.611 63.3669 67.9941 62.3106 69.2614 61.1621C70.5198 60.0035 71.6614 58.7558 72.6758 57.4507C74.7207 54.8467 76.198 51.9797 77.2147 49.1526C77.7119 47.7326 78.081 46.3167 78.3597 44.9358C78.6335 43.5527 78.7735 42.1975 78.8621 40.8999C78.9849 38.2974 78.781 35.9148 78.3863 33.8539C77.9819 31.7929 77.4315 30.0455 76.8652 28.656C76.7423 28.3023 76.58 27.9845 76.4518 27.6766C76.3155 27.376 76.1982 27.0719 76.0694 26.835C75.9461 26.5884 75.8324 26.3606 75.7276 26.1514C75.6756 26.0471 75.6264 25.947 75.5796 25.8523C75.5339 25.7583 75.4656 25.6459 75.4156 25.5526C74.9817 24.7801 74.7503 24.3679 74.7503 24.3679L80.2209 21.478Z" fill="#FA1B38"/>
<path d="M52.4454 5.46155C52.4454 5.46155 52.8922 5.61241 53.7323 5.89513C53.8409 5.93348 53.9403 5.96196 54.0736 6.01344C54.2048 6.06438 54.3434 6.11768 54.4886 6.17338C54.7789 6.28644 55.0942 6.4095 55.4369 6.54238C55.7874 6.67173 56.1145 6.83488 56.4867 6.99773C56.8505 7.16931 57.2485 7.32683 57.6469 7.54168C59.2729 8.33064 61.1736 9.44546 63.1798 10.951C65.1789 12.4638 67.2556 14.4033 69.1982 16.7775C70.1475 17.981 71.086 19.2732 71.9323 20.6874C72.773 22.1039 73.5569 23.616 74.2308 25.226C75.5548 28.4509 76.4951 32.0441 76.7556 35.8197C76.8943 37.7042 76.8796 39.6283 76.6991 41.5576C76.5059 43.4857 76.1459 45.4149 75.6234 47.3096L75.4234 48.0201L75.3739 48.1978L75.362 48.2419L75.3356 48.3289L75.3072 48.412L75.195 48.7435C75.1187 48.9678 75.0522 49.1796 74.966 49.414L74.68 50.1503C74.493 50.6489 74.271 51.086 74.0645 51.5554C73.8263 52.005 73.6163 52.4677 73.3512 52.9027C72.8615 53.794 72.2769 54.6296 71.6763 55.4486C71.0496 56.2488 70.3945 57.0274 69.6726 57.74C66.8057 60.6089 63.1942 62.6813 59.3787 63.6734C57.4742 64.18 55.5226 64.4193 53.6042 64.4213C51.6846 64.4043 49.7939 64.167 48.0038 63.6891L47.3369 63.5021L47.1703 63.4552L47.0877 63.4316C46.9817 63.3994 47.0359 63.4153 47.0023 63.4036L46.9635 63.3899L46.6537 63.2764L46.0365 63.0513C45.832 62.9785 45.6284 62.9067 45.4075 62.7934C44.9802 62.5847 44.5388 62.3935 44.1356 62.1668C43.7464 61.9281 43.359 61.6897 42.9734 61.4527C41.483 60.4256 40.2272 59.1546 39.2431 57.7638C38.2574 56.3714 37.5432 54.8598 37.0842 53.3366C36.6248 51.8092 36.4735 50.2651 36.4994 48.8028C36.519 48.4368 36.5278 48.0741 36.5572 47.7178C36.6096 47.3641 36.6614 47.0138 36.7127 46.6676C36.7496 46.3196 36.8522 45.9882 36.9323 45.6574C36.9744 45.4925 37.0161 45.3286 37.0571 45.1658L37.119 44.9229C37.1489 44.8032 37.1753 44.7583 37.2035 44.6728C37.323 44.368 37.4042 44.0725 37.5512 43.7716C37.7004 43.4751 37.8251 43.1672 37.9903 42.8972C38.1602 42.6293 38.3093 42.3548 38.4891 42.1068C38.6771 41.8635 38.8525 41.6178 39.0422 41.3901C39.8066 40.4801 40.6983 39.7968 41.5767 39.288C42.4588 38.7838 43.3336 38.435 44.1535 38.2552C45.7874 37.8538 47.1272 37.961 47.9952 38.1231C48.2163 38.148 48.4068 38.1958 48.5704 38.2406C48.7342 38.2823 48.872 38.3177 48.9834 38.3456C49.2058 38.3991 49.3177 38.4377 49.3177 38.4377C49.3177 38.4377 49.2041 38.4048 48.9791 38.3629C48.867 38.3405 48.7274 38.3126 48.5623 38.2793C48.3976 38.2431 48.2064 38.2053 47.9851 38.1916C47.1172 38.0746 45.7892 38.0396 44.2222 38.5118C43.436 38.7261 42.6083 39.1085 41.7888 39.6344C40.9733 40.1639 40.1607 40.8567 39.4855 41.7497C39.3184 41.9729 39.1661 42.213 39.0017 42.4484C38.8449 42.6888 38.7197 42.9537 38.5737 43.2096C38.4327 43.4689 38.34 43.746 38.2175 44.0164C38.0987 44.2857 38.0234 44.6129 37.9224 44.9149C37.6415 46.1077 37.3958 47.4379 37.4661 48.8044C37.513 50.1693 37.7254 51.5903 38.2197 52.9722C38.7142 54.3498 39.4381 55.6931 40.393 56.9043C41.3457 58.1153 42.5286 59.1933 43.895 60.0356C44.2466 60.2273 44.6001 60.4205 44.955 60.6141C45.3127 60.7903 45.6771 60.922 46.0369 61.0828C46.2058 61.1654 46.4173 61.2286 46.6285 61.2919L47.2564 61.4851L47.572 61.5832L47.6112 61.5944C47.6036 61.5922 47.6838 61.6173 47.6042 61.5921L47.6815 61.6094L47.8361 61.6445L48.4536 61.7841C50.1087 62.1368 51.8304 62.2597 53.5554 62.1877C55.2793 62.0973 57.0101 61.7933 58.677 61.257C62.0184 60.2032 65.085 58.2102 67.4316 55.6082C68.0235 54.9614 68.5512 54.2614 69.0537 53.5495C69.53 52.8199 69.9952 52.0838 70.371 51.3018C70.5783 50.9219 70.7337 50.5156 70.9189 50.1263C71.0674 49.7271 71.252 49.3169 71.3704 48.9307L71.5665 48.3476C71.6312 48.1398 71.693 47.9024 71.7567 47.6814L71.8509 47.3452L71.8753 47.2604C71.8904 47.2072 71.8672 47.2864 71.8722 47.2633L71.8818 47.2231L71.918 47.0623L72.0627 46.4184C72.4417 44.705 72.6721 42.9796 72.7569 41.2708C72.8269 39.5618 72.7517 37.8734 72.5463 36.2326C72.1509 32.9455 71.1677 29.8739 69.8882 27.1561C69.2363 25.8 68.4957 24.5378 67.7161 23.3645C66.9319 22.1922 66.0732 21.1354 65.2178 20.155C63.4642 18.2281 61.6351 16.6877 59.8989 15.5091C58.1553 14.3382 56.5306 13.4922 55.1481 12.9095C54.8107 12.7463 54.4709 12.6368 54.1623 12.5095C53.854 12.3929 53.5557 12.2609 53.2972 12.1848C53.0358 12.0977 52.7936 12.017 52.5721 11.9432C52.4622 11.9057 52.3559 11.8699 52.2562 11.8361C52.1573 11.8018 52.0302 11.7706 51.9273 11.7406C51.0748 11.5012 50.6199 11.3731 50.6199 11.3731L52.4454 5.46155Z" fill="#FA1B38"/>
<path d="M21.478 13.7777C21.478 13.7777 21.9011 13.5676 22.6947 13.1737C22.7982 13.1242 22.8891 13.0739 23.0196 13.0164C23.1488 12.9591 23.2845 12.8986 23.4267 12.8358C23.7111 12.7105 24.0215 12.5741 24.3574 12.4266C24.6965 12.2695 25.0434 12.1542 25.422 12.0065C25.8012 11.8695 26.1937 11.6996 26.6273 11.5698C28.3343 10.9784 30.4671 10.4226 32.9504 10.0687C35.4332 9.72442 38.2736 9.62744 41.3254 9.93283C42.848 10.1127 44.4254 10.3622 46.0238 10.7643C47.6198 11.1715 49.2432 11.687 50.8582 12.3485C54.0746 13.6926 57.28 15.5681 60.1342 18.0541C61.5646 19.2889 62.9152 20.6595 64.152 22.1512C65.3787 23.651 66.4876 25.2704 67.458 26.9797L67.8195 27.6226L67.9093 27.7835L67.9323 27.8238L67.9755 27.9035L68.0141 27.9821L68.1688 28.2958C68.2737 28.5086 68.3765 28.7051 68.4817 28.932L68.7995 29.6546C69.0207 30.1395 69.1721 30.6062 69.358 31.0842C69.5074 31.5696 69.6863 32.0459 69.8066 32.5407C70.0911 33.5168 70.2681 34.5218 70.4224 35.5253C70.5456 36.5342 70.6322 37.5479 70.6262 38.5623C70.6284 42.6181 69.5385 46.6371 67.5425 50.0373C66.5543 51.742 65.3443 53.2909 63.9876 54.6493C62.6188 55.9934 61.1142 57.1627 59.5107 58.0911L58.9069 58.4308L58.7561 58.5152L58.6806 58.5572C58.5832 58.6089 58.6323 58.5818 58.6004 58.5976L58.5631 58.6148L58.2647 58.7543L57.6685 59.0313C57.4723 59.1242 57.2778 59.2181 57.0419 59.2938C56.5917 59.4482 56.144 59.6255 55.6995 59.75C55.2547 59.8559 54.8121 59.962 54.3724 60.0676C52.5925 60.395 50.8056 60.3839 49.1259 60.0956C47.4446 59.8088 45.8709 59.2454 44.4688 58.4922C43.0639 57.7366 41.8649 56.7516 40.8493 55.7C40.6045 55.4272 40.3546 55.165 40.1229 54.8912C39.9099 54.6045 39.6994 54.3211 39.491 54.0396C39.2706 53.7674 39.1089 53.4605 38.9317 53.17C38.8447 53.0233 38.7578 52.8778 38.6722 52.7338L38.5442 52.5178C38.481 52.4127 38.4677 52.3621 38.4273 52.2818C38.2964 51.9822 38.1446 51.7156 38.036 51.3988C37.9315 51.0837 37.8021 50.7778 37.7277 50.4695C37.6586 50.1609 37.57 49.8611 37.522 49.5579C37.4828 49.2531 37.4327 48.9554 37.406 48.6605C37.3031 47.4758 37.4504 46.3624 37.7118 45.3819C37.9789 44.4011 38.3508 43.536 38.8031 42.8295C39.6749 41.39 40.6979 40.5185 41.4264 40.0192C41.6003 39.8812 41.7692 39.78 41.9161 39.696C42.0617 39.6097 42.1839 39.5368 42.2826 39.4785C42.4778 39.3587 42.5843 39.3069 42.5843 39.3069C42.5843 39.3069 42.4805 39.364 42.2918 39.4935C42.1966 39.5569 42.0783 39.6357 41.9378 39.7289C41.796 39.8199 41.634 39.9282 41.4682 40.0751C40.7711 40.606 39.8078 41.52 39.0336 42.9621C38.629 43.67 38.3144 44.5256 38.1062 45.4763C37.9044 46.4278 37.8195 47.4923 37.9739 48.601C38.0136 48.8771 38.0752 49.1545 38.1254 49.4372C38.1848 49.718 38.2835 49.9943 38.3615 50.278C38.4445 50.5613 38.5755 50.8225 38.6802 51.1008C38.7864 51.3753 38.9649 51.6601 39.1068 51.9447C39.7513 52.9872 40.5183 54.1011 41.5343 55.0179C42.5327 55.9492 43.6872 56.8041 45.0143 57.4313C46.3386 58.0566 47.7997 58.494 49.3313 58.6757C50.8613 58.8581 52.4601 58.7833 54.0219 58.4131C54.4059 58.3003 54.7922 58.1865 55.1801 58.0724C55.5579 57.9444 55.909 57.7802 56.2767 57.6396C56.4549 57.578 56.649 57.4729 56.8429 57.3683L57.4239 57.0614L57.7157 56.9074L57.752 56.8879C57.7451 56.8915 57.8193 56.8528 57.7457 56.8914L57.8122 56.8486L57.9458 56.7635L58.4812 56.4261C59.9004 55.5049 61.2057 54.3744 62.3743 53.1033C63.5294 51.8208 64.5382 50.3825 65.338 48.8247C66.9552 45.7163 67.7153 42.1387 67.5333 38.6393C67.4944 37.7635 67.3727 36.8957 67.2246 36.037C67.0453 35.1839 66.8543 34.3345 66.5668 33.5161C66.4455 33.1005 66.2682 32.7036 66.1237 32.2977C65.9465 31.9101 65.7859 31.4899 65.5971 31.1323L65.3238 30.5818C65.2222 30.3895 65.0988 30.1772 64.9871 29.9765L64.816 29.6711L64.7728 29.595C64.7462 29.5458 64.7849 29.6185 64.7728 29.5986L64.7511 29.5635L64.6623 29.4244L64.3103 28.8671C63.3667 27.3875 62.3097 26.0035 61.1608 24.7366C60.0023 23.4781 58.7553 22.337 57.4498 21.3224C54.8459 19.2777 51.9792 17.8006 49.1522 16.7839C47.7321 16.2862 46.3162 15.9173 44.9352 15.6384C43.552 15.3643 42.1972 15.2245 40.8994 15.1357C38.2969 15.0132 35.9146 15.217 33.8531 15.6119C31.7924 16.0165 30.045 16.5672 28.6557 17.1328C28.3015 17.2561 27.9839 17.4188 27.6762 17.5466C27.3752 17.6826 27.0711 17.7999 26.8348 17.9289C26.588 18.0523 26.3599 18.1661 26.1509 18.2705C26.0462 18.3223 25.9466 18.3721 25.8516 18.4189C25.7577 18.4639 25.6455 18.5327 25.5519 18.5832C24.7797 19.017 24.3675 19.2481 24.3675 19.2481L21.478 13.7777Z" fill="#FA1B38"/>
<path d="M5.46222 41.5547C5.46222 41.5547 5.61328 41.1073 5.89575 40.2676C5.93409 40.159 5.96258 40.0596 6.01437 39.9262C6.06496 39.7944 6.11849 39.6559 6.17401 39.5109C6.28712 39.2213 6.41013 38.9053 6.54304 38.5632C6.67235 38.2125 6.83555 37.8857 6.99906 37.5134C7.17012 37.1487 7.32734 36.7508 7.5423 36.3527C8.33129 34.7272 9.44661 32.8258 10.9522 30.8198C12.4644 28.8208 14.4042 26.7439 16.7781 24.8017C17.9821 23.8522 19.2738 22.9135 20.6885 22.0674C22.1045 21.2268 23.6167 20.4433 25.2266 19.7694C28.4517 18.4453 32.0446 17.5044 35.8203 17.2445C37.7055 17.106 39.6292 17.1205 41.5583 17.3004C43.4865 17.4936 45.4157 17.8544 47.3104 18.3767L48.0205 18.5758L48.1982 18.6259L48.2428 18.6387L48.3295 18.6649L48.4122 18.6929L48.7439 18.8045C48.968 18.8814 49.1799 18.9482 49.4148 19.0338L50.1508 19.3196C50.6498 19.5064 51.0868 19.7291 51.5562 19.9356C52.0052 20.1736 52.4683 20.3842 52.9033 20.6489C53.7947 21.1377 54.6309 21.7228 55.4491 22.3236C56.25 22.9496 57.0275 23.6055 57.7407 24.3272C60.6102 27.1937 62.6811 30.8055 63.6747 34.6211C64.1806 36.5254 64.4206 38.4771 64.4212 40.3958C64.4044 42.3154 64.167 44.2056 63.6899 45.9961L63.5027 46.6637L63.4564 46.8292L63.4329 46.912C63.4001 47.0176 63.4151 46.9638 63.4044 46.9976L63.3904 47.0367L63.2776 47.3455L63.0515 47.9638C62.9788 48.1677 62.9075 48.3719 62.7944 48.5923C62.5855 49.02 62.3936 49.461 62.1681 49.8638C61.9282 50.253 61.6902 50.6413 61.453 51.0257C60.4268 52.5163 59.155 53.7722 57.7642 54.7569C56.3723 55.7419 54.8608 56.4564 53.337 56.9152C51.8094 57.3751 50.265 57.5265 48.8037 57.5005C48.4373 57.481 48.0746 57.4716 47.7184 57.4431C47.3646 57.39 47.0143 57.3382 46.6686 57.2869C46.3204 57.2503 45.9889 57.1472 45.6582 57.0673C45.4932 57.0261 45.3294 56.9835 45.1665 56.9426L44.9234 56.8806C44.8043 56.8513 44.7592 56.8248 44.6737 56.7963C44.369 56.6765 44.0737 56.596 43.772 56.4485C43.4759 56.2995 43.1679 56.1742 42.8978 56.0099C42.6301 55.8398 42.3556 55.6907 42.1073 55.5105C41.8647 55.3228 41.6186 55.1471 41.3909 54.9574C40.4806 54.1931 39.7973 53.3016 39.2886 52.4233C38.7843 51.5411 38.4357 50.6669 38.2559 49.8471C37.8547 48.2128 37.9616 46.873 38.1237 46.005C38.1488 45.7838 38.197 45.593 38.2411 45.4296C38.2829 45.266 38.3182 45.1279 38.3462 45.0169C38.3997 44.7941 38.4383 44.6825 38.4383 44.6825C38.4383 44.6825 38.4057 44.7961 38.3635 45.0211C38.3411 45.1332 38.3135 45.2724 38.2802 45.4378C38.244 45.6023 38.2059 45.7939 38.1921 46.0148C38.0754 46.8827 38.0401 48.2104 38.5124 49.778C38.7269 50.5648 39.1091 51.3917 39.635 52.2111C40.1647 53.0269 40.8576 53.8397 41.7508 54.5144C41.974 54.6814 42.2142 54.8341 42.4489 54.9979C42.6895 55.1547 42.9545 55.2802 43.2104 55.4259C43.4695 55.5675 43.7467 55.6597 44.0173 55.7824C44.2866 55.9017 44.6139 55.9768 44.9157 56.0773C46.1086 56.3584 47.4388 56.605 48.8052 56.5338C50.1701 56.4869 51.5912 56.2751 52.9727 55.7803C54.3508 55.2854 55.6941 54.5615 56.9053 53.6066C58.1164 52.6541 59.1943 51.471 60.0361 50.1049C60.2278 49.7536 60.4205 49.4003 60.6144 49.0444C60.7908 48.6879 60.923 48.3228 61.0838 47.9629C61.1666 47.7935 61.2291 47.5824 61.2923 47.3712L61.486 46.7428L61.5827 46.4278L61.5955 46.3889C61.5932 46.3965 61.6185 46.3163 61.593 46.3953L61.6104 46.3184L61.645 46.1644L61.7841 45.5468C62.1367 43.8913 62.2604 42.1692 62.1881 40.4445C62.098 38.7206 61.7941 36.9897 61.258 35.3229C60.2037 31.9818 58.2111 28.9142 55.608 26.5687C54.9616 25.9767 54.2618 25.449 53.5501 24.9468C52.8204 24.4699 52.0844 24.0049 51.3024 23.6292C50.9223 23.421 50.5163 23.2661 50.1271 23.0815C49.7279 22.9323 49.3177 22.7484 48.9312 22.6295L48.3482 22.4336C48.1406 22.3688 47.9031 22.3068 47.6822 22.2434L47.3453 22.1487L47.2609 22.1252C47.2077 22.1097 47.2863 22.1328 47.2638 22.1276L47.2237 22.1184L47.0626 22.0822L46.4192 21.9374C44.7055 21.5588 42.98 21.3271 41.272 21.2434C39.5624 21.1732 37.874 21.2482 36.2331 21.4535C32.9463 21.8485 29.8747 22.8318 27.1566 24.1116C25.8007 24.7641 24.5388 25.5047 23.3651 26.2837C22.1931 27.0683 21.1364 27.9272 20.1556 28.7823C18.2292 30.5355 16.6885 32.3645 15.51 34.1009C14.3391 35.8447 13.4929 37.4693 12.9104 38.8517C12.7473 39.1894 12.6374 39.529 12.5104 39.8372C12.3939 40.146 12.2615 40.4438 12.1856 40.7024C12.0983 40.9641 12.0179 41.2059 11.9441 41.4276C11.9064 41.5382 11.8708 41.6436 11.8368 41.7439C11.8027 41.8424 11.7713 41.97 11.7412 42.0723C11.5019 42.9251 11.374 43.3799 11.374 43.3799L5.46222 41.5547Z" fill="#FA1B38"/>
<path d="M13.7781 72.5221C13.7781 72.5221 13.568 72.099 13.1743 71.3048C13.1244 71.201 13.0746 71.111 13.0166 70.9796C12.9593 70.8501 12.8993 70.7155 12.8362 70.5731C12.7107 70.2881 12.5746 69.9779 12.4269 69.642C12.2701 69.3029 12.1544 68.9561 12.0067 68.5769C11.8702 68.1982 11.6999 67.8055 11.57 67.3716C10.9786 65.6649 10.4233 63.5329 10.0691 61.0497C9.7247 58.566 9.62766 55.7255 9.93309 52.674C10.1132 51.1513 10.3626 49.5736 10.7646 47.9753C11.1718 46.3797 11.6869 44.7562 12.3487 43.1411C13.6931 39.9248 15.5682 36.7188 18.0543 33.8649C19.2893 32.4341 20.6598 31.0842 22.1511 29.8472C23.6509 28.6204 25.2703 27.5112 26.9795 26.5411L27.6227 26.1796L27.7833 26.0895L27.8236 26.0672L27.9033 26.0239L27.9821 25.9853L28.2955 25.8297C28.5087 25.7254 28.7057 25.623 28.9321 25.5174L29.6546 25.1992C30.1394 24.9788 30.6062 24.8267 31.084 24.6408C31.57 24.4917 32.046 24.3131 32.5406 24.1928C33.5173 23.9082 34.5222 23.7309 35.5258 23.5767C36.5342 23.4532 37.5477 23.367 38.5625 23.3735C42.618 23.3712 46.637 24.4608 50.0371 26.4566C51.7417 27.4445 53.291 28.6554 54.6487 30.0116C55.9941 31.3805 57.1628 32.8852 58.0912 34.4886L58.43 35.0927L58.5148 35.2435L58.5569 35.3183C58.6093 35.4162 58.5813 35.3673 58.5978 35.3984L58.6152 35.436L58.7535 35.735L59.0311 36.331C59.1237 36.5272 59.2178 36.7217 59.2933 36.9577C59.4482 37.4074 59.6252 37.8549 59.7503 38.2999C59.8565 38.7447 59.9617 39.1871 60.0668 39.6271C60.3945 41.4068 60.3837 43.1939 60.0957 44.8736C59.8086 46.5549 59.2449 48.1284 58.4924 49.5307C57.7366 50.9353 56.7517 52.1343 55.7002 53.1505C55.4271 53.3951 55.1646 53.645 54.8916 53.8763C54.6043 54.0896 54.3203 54.3006 54.0394 54.5086C53.767 54.729 53.4603 54.8909 53.1696 55.0681C53.023 55.1543 52.8778 55.2414 52.7336 55.3271L52.5177 55.4553C52.4125 55.5186 52.3618 55.531 52.2817 55.5719C51.9817 55.7033 51.7153 55.8546 51.3987 55.9642C51.0835 56.0675 50.7776 56.1975 50.4695 56.2712C50.1603 56.3404 49.8603 56.429 49.5578 56.4778C49.2533 56.5167 48.9552 56.5665 48.6606 56.5929C47.476 56.6964 46.3623 56.5494 45.3818 56.2874C44.4013 56.0206 43.5362 55.649 42.8289 55.1959C41.3902 54.3246 40.5184 53.3017 40.0191 52.5732C39.8807 52.3993 39.7802 52.2303 39.6959 52.0837C39.6096 51.938 39.5368 51.816 39.4781 51.7172C39.3584 51.5221 39.3074 51.4154 39.3074 51.4154C39.3074 51.4154 39.3636 51.5194 39.4934 51.708C39.5568 51.8034 39.6353 51.9216 39.7288 52.0617C39.8201 52.2035 39.9285 52.3658 40.0749 52.5322C40.6058 53.2281 41.52 54.1921 42.9618 54.9666C43.6695 55.3703 44.5252 55.6858 45.4764 55.8927C46.4277 56.0955 47.4924 56.1799 48.6008 56.0253C48.8769 55.9859 49.1546 55.924 49.437 55.8739C49.718 55.8144 49.9938 55.7155 50.2781 55.638C50.5611 55.5548 50.8223 55.4241 51.1006 55.3188C51.3751 55.2129 51.6596 55.0343 51.9444 54.8924C52.987 54.2482 54.1012 53.4809 55.0177 52.4652C55.9493 51.4667 56.8042 50.312 57.4312 48.9855C58.0559 47.6613 58.4944 46.1997 58.6757 44.6679C58.8585 43.1375 58.784 41.5389 58.4129 39.9776C58.3001 39.5939 58.1863 39.2074 58.0722 38.8194C57.9445 38.4413 57.7794 38.0907 57.6387 37.7226C57.5781 37.5445 57.4732 37.3501 57.3686 37.1563L57.0609 36.5757L56.9067 36.2839L56.8882 36.2471C56.8913 36.2541 56.8526 36.1802 56.8906 36.2539L56.8484 36.1872L56.7642 36.0536L56.4257 35.5177C55.5049 34.0985 54.3748 32.7937 53.1037 31.6251C51.8211 30.4694 50.3823 29.4607 48.8243 28.6615C45.7168 27.0445 42.1385 26.2845 38.6398 26.4661C37.7636 26.5047 36.896 26.6261 36.0374 26.7744C35.1843 26.9534 34.3346 27.145 33.5159 27.4324C33.1004 27.5542 32.7035 27.7315 32.298 27.876C31.9103 28.0529 31.4899 28.2129 31.1323 28.4017L30.582 28.6759C30.3896 28.7769 30.1774 28.9009 29.9766 29.012L29.6713 29.1834L29.5948 29.226C29.5462 29.2531 29.6185 29.2138 29.5984 29.226L29.5641 29.2482L29.4242 29.3365L28.8672 29.6888C27.3873 30.6328 26.004 31.6894 24.7367 32.8382C23.4784 33.9971 22.3372 35.2438 21.3225 36.5493C19.2776 39.1529 17.8009 42.0202 16.7842 44.8473C16.2862 46.2674 15.9179 47.6828 15.6386 49.0639C15.3649 50.4473 15.2245 51.8023 15.1359 53.1001C15.0133 55.7022 15.2176 58.0851 15.6118 60.1464C16.017 62.2065 16.5677 63.9543 17.1331 65.3438C17.2563 65.6977 17.4187 66.0154 17.5469 66.3233C17.6828 66.624 17.8002 66.9284 17.9289 67.1647C18.0525 67.4115 18.1666 67.6395 18.271 67.8482C18.3225 67.953 18.3719 68.0526 18.4188 68.148C18.4645 68.2417 18.5328 68.3544 18.5837 68.4472C19.0169 69.2195 19.2486 69.6317 19.2486 69.6317L13.7781 72.5221Z" fill="#FA1B38"/>
<path d="M41.5555 88.5377C41.5555 88.5377 41.1076 88.3874 40.2678 88.1045C40.1596 88.0662 40.0598 88.0372 39.9264 87.9857C39.7949 87.935 39.6565 87.8826 39.5111 87.826C39.222 87.7137 38.9056 87.5905 38.564 87.4566C38.2131 87.3285 37.8859 87.1645 37.5141 87.0021C37.1492 86.8296 36.7513 86.6729 36.3529 86.4574C34.7276 85.669 32.8268 84.5542 30.8206 83.0486C28.8209 81.536 26.7439 79.5965 24.8023 77.2221C23.8525 76.0179 22.9135 74.7262 22.0678 73.312C21.2268 71.8958 20.4434 70.3842 19.7694 68.7737C18.4455 65.5497 17.5047 61.9556 17.2445 58.1799C17.1062 56.2957 17.1209 54.3716 17.3007 52.4421C17.4937 50.514 17.8545 48.5847 18.3771 46.69L18.5762 45.9799L18.626 45.8023L18.6384 45.7577L18.6646 45.6711L18.6929 45.588L18.8045 45.2566C18.8814 45.0321 18.9483 44.8206 19.0341 44.5856L19.3196 43.8497C19.5065 43.3507 19.7295 42.9136 19.9359 42.4443C20.1739 41.9953 20.3842 41.5322 20.649 41.0972C21.1381 40.2054 21.7231 39.3695 22.3238 38.551C22.9501 37.7504 23.6057 36.9729 24.3276 36.26C27.1937 33.3905 30.8061 31.319 34.6212 30.326C36.5255 29.8195 38.4772 29.5802 40.3961 29.579C42.3153 29.5954 44.206 29.8331 45.9961 30.3106L46.6635 30.4975L46.8295 30.5443L46.9126 30.5675C47.0181 30.6003 46.9641 30.5851 46.9975 30.5958L47.0363 30.6098L47.3461 30.7231L47.9637 30.9487C48.1679 31.0216 48.3718 31.093 48.5922 31.2061C49.0196 31.415 49.4611 31.6062 49.8642 31.8326C50.2535 32.0719 50.6411 32.31 51.0264 32.5467C52.5169 33.5738 53.7726 34.8452 54.7567 36.2359C55.7424 37.6283 56.457 39.1395 56.916 40.6634C57.3751 42.1911 57.5261 43.7353 57.5005 45.1972C57.4809 45.5633 57.4721 45.9259 57.443 46.2822C57.3903 46.6359 57.3384 46.9859 57.2874 47.3321C57.2503 47.6801 57.1477 48.0118 57.0676 48.3426C57.0257 48.5074 56.9838 48.6711 56.9426 48.8346L56.8806 49.0775C56.8511 49.1968 56.8245 49.2417 56.7962 49.3266C56.6768 49.6317 56.5959 49.9272 56.4484 50.2282C56.2993 50.524 56.1748 50.8325 56.0097 51.1022C55.8397 51.3704 55.6906 51.6452 55.5107 51.8929C55.3229 52.1365 55.1474 52.3822 54.9579 52.6093C54.1933 53.5199 53.3015 54.2029 52.4235 54.7122C51.5411 55.2163 50.6666 55.5649 49.8467 55.7448C48.2125 56.1463 46.8729 56.039 46.0048 55.8772C45.7838 55.8517 45.5934 55.8041 45.4299 55.7596C45.266 55.7177 45.1279 55.6827 45.0168 55.6544C44.7942 55.6015 44.6827 55.5619 44.6827 55.5619C44.6827 55.5619 44.7959 55.5958 45.0211 55.6368C45.1335 55.6594 45.2726 55.6883 45.4378 55.7204C45.6023 55.7569 45.7938 55.7947 46.0147 55.8081C46.8828 55.9255 48.2106 55.9601 49.778 55.4885C50.5641 55.2735 51.392 54.892 52.2111 54.3659C53.0269 53.8361 53.8391 53.1434 54.5143 52.25C54.6814 52.0269 54.8338 51.787 54.9981 51.5516C55.155 51.3115 55.2801 51.0458 55.4262 50.7901C55.5675 50.5311 55.6598 50.2535 55.7827 49.9839C55.9014 49.7143 55.9763 49.3862 56.0775 49.0848C56.3583 47.8917 56.6043 46.5615 56.5337 45.1953C56.4868 43.8301 56.2744 42.4094 55.7802 41.0279C55.2857 39.6496 54.5618 38.3067 53.6071 37.0951C52.6541 35.8841 51.4712 34.8064 50.1049 33.9644C49.7536 33.7727 49.4002 33.5797 49.0449 33.386C48.6877 33.2091 48.3227 33.0775 47.9629 32.9169C47.794 32.834 47.5825 32.7711 47.3716 32.7075L46.7433 32.5141L46.4282 32.4171L46.3885 32.4047C46.3962 32.4076 46.3161 32.3824 46.3956 32.4077L46.3183 32.3901L46.164 32.3552L45.5463 32.2159C43.8916 31.8634 42.1693 31.7397 40.445 31.8122C38.7205 31.9025 36.99 32.2063 35.3235 32.7427C31.982 33.7967 28.9147 35.7892 26.5686 38.3921C25.9769 39.0385 25.4489 39.7383 24.9467 40.4501C24.4698 41.1798 24.005 41.9161 23.6292 42.6984C23.4214 43.0781 23.2662 43.4842 23.0816 43.8734C22.9323 44.2723 22.7487 44.6831 22.6293 45.0697L22.4336 45.652C22.3689 45.8599 22.3072 46.0973 22.2435 46.3182L22.1487 46.6552L22.1248 46.7393C22.1095 46.7931 22.133 46.7139 22.1274 46.7368L22.1187 46.7768L22.0825 46.9379L21.9377 47.5812C21.5585 49.2948 21.3275 51.0205 21.2436 52.7291C21.1733 54.4385 21.2481 56.1263 21.4538 57.7668C21.8486 61.0543 22.8319 64.1262 24.112 66.8436C24.7642 68.1999 25.5048 69.4627 26.2838 70.6352C27.0683 71.8074 27.9272 72.8639 28.7822 73.8441C30.5358 75.7711 32.3647 77.3115 34.1015 78.4902C35.8447 79.6611 37.4699 80.508 38.8522 81.0896C39.1894 81.2531 39.5292 81.3626 39.8372 81.4897C40.1462 81.6058 40.4443 81.7382 40.7028 81.8143C40.964 81.902 41.2064 81.9821 41.4279 82.0562C41.5385 82.0942 41.6439 82.1295 41.7442 82.1632C41.8431 82.1978 41.9703 82.2293 42.0726 82.2591C42.9256 82.4981 43.3805 82.6268 43.3805 82.6268L41.5555 88.5377Z" fill="#FA1B38"/>
<path d="M72.5207 80.2216C72.5207 80.2216 72.0972 80.4314 71.3042 80.8249C71.2009 80.8759 71.1094 80.926 70.9792 80.9835C70.8498 81.0402 70.7138 81.1003 70.5724 81.164C70.2879 81.289 69.9775 81.4257 69.6418 81.5729C69.302 81.7303 68.9553 81.8451 68.5766 81.9937C68.1979 82.1302 67.8049 82.2993 67.3713 82.4291C65.6648 83.0211 63.532 83.5775 61.0486 83.9305C58.5655 84.2751 55.7252 84.373 52.6733 84.0667C51.1507 83.8866 49.5734 83.6377 47.9751 83.2348C46.3789 82.828 44.7556 82.3129 43.1406 81.6519C39.9242 80.3073 36.7181 78.4316 33.8643 75.9458C32.4342 74.711 31.0835 73.3397 29.8468 71.8483C28.62 70.3485 27.5107 68.7298 26.5405 67.0202L26.1794 66.3779L26.0892 66.2167L26.0666 66.1767L26.0236 66.0964L25.9848 66.0183L25.8294 65.7041C25.7254 65.4912 25.6225 65.2943 25.5171 65.0679L25.1987 64.3459C24.9782 63.8609 24.8267 63.394 24.6404 62.9156C24.4914 62.4303 24.3125 61.9543 24.1925 61.4596C23.9076 60.483 23.7301 59.4781 23.5758 58.4746C23.4528 57.4657 23.3666 56.4522 23.3727 55.4378C23.3707 51.382 24.46 47.363 26.4557 43.9629C27.4439 42.2582 28.6545 40.709 30.0107 39.3513C31.3793 38.0059 32.8842 36.8372 34.4877 35.9088L35.0917 35.569L35.2422 35.485L35.3175 35.4425C35.4153 35.3909 35.3662 35.4184 35.3977 35.4021L35.4353 35.3848L35.7342 35.2458L36.3301 34.9688C36.5262 34.8756 36.7208 34.7818 36.9569 34.706C37.4068 34.5515 37.8542 34.3745 38.299 34.2496C38.7437 34.1437 39.1861 34.038 39.6261 33.9329C41.4061 33.6051 43.1933 33.6162 44.8723 33.904C46.554 34.1914 48.1273 34.7545 49.5297 35.5076C50.9345 36.263 52.1335 37.2483 53.1489 38.2999C53.3941 38.5729 53.6437 38.8355 53.8752 39.1081C54.0883 39.3954 54.2992 39.6794 54.5076 39.9606C54.7276 40.2325 54.8896 40.5397 55.0669 40.8305C55.1538 40.9766 55.2401 41.1223 55.3261 41.2664L55.4542 41.4821C55.5173 41.5876 55.5306 41.6382 55.571 41.7184C55.702 42.0183 55.8536 42.2846 55.9626 42.6013C56.0668 42.9165 56.1961 43.2222 56.2705 43.5305C56.3397 43.8396 56.4285 44.1391 56.4768 44.4422C56.5157 44.7464 56.5654 45.0443 56.5925 45.3394C56.6954 46.524 56.5481 47.6375 56.2867 48.6185C56.0196 49.5993 55.648 50.4641 55.1955 51.171C54.3237 52.6101 53.3007 53.482 52.5725 53.9809C52.3983 54.1193 52.2295 54.2195 52.0823 54.304C51.9371 54.3905 51.8147 54.4634 51.7163 54.5219C51.521 54.6411 51.4145 54.6926 51.4145 54.6926C51.4145 54.6926 51.5184 54.6361 51.707 54.5067C51.8025 54.4432 51.9204 54.3651 52.0608 54.271C52.2025 54.1797 52.3649 54.0722 52.5306 53.925C53.2275 53.3942 54.1908 52.4798 54.9653 51.0383C55.3695 50.3302 55.6842 49.4746 55.8924 48.5238C56.0945 47.5723 56.1787 46.5082 56.0245 45.3989C55.9848 45.1228 55.923 44.8455 55.8728 44.5627C55.8134 44.2822 55.7148 44.0059 55.637 43.7219C55.5534 43.439 55.4228 43.1778 55.3184 42.8994C55.2122 42.6249 55.0336 42.3404 54.8914 42.0555C54.2469 41.013 53.4802 39.8988 52.4639 38.9823C51.4657 38.0504 50.3109 37.1958 48.9842 36.5683C47.66 35.9436 46.1985 35.5059 44.6669 35.3243C43.1369 35.1421 41.5381 35.2163 39.9769 35.5871C39.5926 35.6999 39.2064 35.8134 38.8184 35.9278C38.4406 36.0555 38.0896 36.2199 37.7215 36.3604C37.5436 36.4219 37.3492 36.5271 37.1553 36.6313L36.5743 36.9388L36.2828 37.0927L36.2462 37.112C36.2534 37.1087 36.1789 37.1471 36.2529 37.1091L36.1859 37.1513L36.0526 37.2357L35.517 37.5741C34.0978 38.495 32.7924 39.6253 31.6244 40.8959C30.4687 42.1788 29.4598 43.6174 28.6608 45.1754C27.0436 48.2832 26.2836 51.8617 26.4656 55.3611C26.504 56.2361 26.6261 57.1044 26.7742 57.9629C26.953 58.8166 27.1444 59.6651 27.432 60.4837C27.5536 60.8993 27.7308 61.2962 27.8757 61.7023C28.0527 62.0902 28.2126 62.51 28.4017 62.8675L28.6754 63.4179C28.7763 63.6104 28.9005 63.8222 29.0117 64.0237L29.1831 64.329L29.226 64.4046C29.2525 64.4541 29.2135 64.3815 29.2256 64.401L29.2477 64.4363L29.3359 64.5761L29.6886 65.1333C30.6321 66.6123 31.6888 67.9961 32.8373 69.2628C33.9963 70.5211 35.2435 71.6631 36.549 72.6777C39.1522 74.7222 42.0196 76.1989 44.8463 77.2153C46.2664 77.7133 47.6829 78.0827 49.0635 78.3614C50.4469 78.6349 51.8015 78.775 53.0996 78.8636C55.7019 78.9867 58.0842 78.7828 60.1457 78.388C62.2067 77.9836 63.9539 77.432 65.343 76.8668C65.6975 76.7434 66.0146 76.5809 66.3228 76.4523C66.6238 76.3172 66.9279 76.1996 67.1643 76.0708C67.4108 75.9475 67.639 75.8323 67.8479 75.7281C67.9524 75.6769 68.0525 75.6278 68.147 75.5813C68.2413 75.5355 68.3534 75.4674 68.4464 75.4158C69.2189 74.982 69.6314 74.7505 69.6314 74.7505L72.5207 80.2216Z" fill="#FA1B38"/>
</svg>
